<svg xmlns="http://www.w3.org/2000/svg" xml:space="preserve" viewBox="0 0 32 32"><path d="M27 7.99h-3.57a1.004 1.004 0 0 1-.92-.61l-.74-1.75A2.998 2.998 0 0 0 18.94 4H13a3.007 3.007 0 0 0-2.85 1.66l-.69 1.71a.99.99 0 0 1-.93.62H5a3.009 3.009 0 0 0-3 3V25a3.009 3.009 0 0 0 3 3h22a3.009 3.009 0 0 0 3-3V10.99a3.009 3.009 0 0 0-3-3zM8.86 17A7.144 7.144 0 0 1 16 9.86c9.45.331 9.448 13.95 0 14.28A7.144 7.144 0 0 1 8.86 17zm16.46-4a.88.88 0 0 1 0-1.76.88.88 0 0 1 0 1.76z" data-original="#000000"/><path d="M21.14 17c-.222-6.792-10.06-6.79-10.28 0 .222 6.792 10.06 6.79 10.28 0z" data-original="#000000"/></svg>