<svg xmlns="http://www.w3.org/2000/svg" xml:space="preserve" viewBox="0 0 64 64"><path d="M56.46 38a4 4 0 0 0 .54-2v-.76a4 4 0 0 0-1.17-2.83L54 30.59V30h5.13l-1.25-10h-9.76l-1.25 10H52v.59l-1.83 1.82A4 4 0 0 0 49 35.24V36a4 4 0 0 0 .54 2H45v17h16V38ZM55 43h-4v-2h4Zm0 7h-4v-2h4ZM42 38.31a6.19 6.19 0 0 0-2-4.58V19h-2v2H8v-2H6v14.73a6.21 6.21 0 0 0-2 4.58V40H3v15h2v-7h36v7h2V40h-1ZM10 32v-3a3 3 0 0 1 3-3h6a3 3 0 0 1 3 3v3H10Zm14-3a3 3 0 0 1 3-3h6a3 3 0 0 1 3 3v3H24ZM6 38.31A4.26 4.26 0 0 1 7.63 35a4.2 4.2 0 0 1 2.68-1h25.38a4.2 4.2 0 0 1 2.68 1l.11.09A4.24 4.24 0 0 1 40 38.31V40H6Z" data-name="Layer 61" data-original="#000000"/></svg>