<svg xmlns="http://www.w3.org/2000/svg" xml:space="preserve" viewBox="0 0 511.999 511.999"><path d="M286.999 120.999H76c-41.353 0-76 33.647-76 75v149.999c0 36.226 26.811 66.519 61 73.491v77.509a14.983 14.983 0 0 0 9.258 13.857c5.532 2.309 12.017 1.078 16.348-3.252l85.604-86.604h114.788c41.353 0 75-33.647 75-75v-150c.001-41.353-33.646-75-74.999-75zM91 300.998c-16.538 0-30-13.462-30-30s13.462-30 30-30 30 13.462 30 30-13.462 30-30 30zm90 0c-16.538 0-30-13.462-30-30s13.462-30 30-30 30 13.462 30 30-13.462 30-30 30zm90.999 0c-16.538 0-30-13.462-30-30s13.462-30 30-30 30 13.462 30 30-13.462 30-30 30z" data-original="#000000"/><path d="M436.998 0H196c-41.353 0-75 33.647-75 75v16h165.999c57.891 0 104.999 47.109 104.999 104.999v149.999c0 1.932-.465 3.735-.569 5.641l34.964 34.964c4.33 4.33 10.816 5.561 16.348 3.252a14.984 14.984 0 0 0 9.258-13.857v-76.509c34.189-6.973 60-37.266 60-73.491V75c-.001-41.353-33.648-75-75.001-75z" data-original="#000000"/></svg>