<svg xmlns="http://www.w3.org/2000/svg" version="1.1" xmlns:xlink="http://www.w3.org/1999/xlink" width="512" height="512" x="0" y="0" viewBox="0 0 455.431 455.431" style="enable-background:new 0 0 512 512" xml:space="preserve" class=""><g><path d="M405.493 412.764c-69.689 56.889-287.289 56.889-355.556 0-69.689-56.889-62.578-300.089 0-364.089s292.978-64 355.556 0 69.689 307.201 0 364.089z" style="" fill="#8dc640" data-original="#8dc640"></path><g style="opacity:0.2;"><path d="M229.138 313.209c-62.578 49.778-132.267 75.378-197.689 76.8-48.356-82.489-38.4-283.022 18.489-341.333 51.2-52.622 211.911-62.578 304.356-29.867 22.755 93.867-24.178 213.333-125.156 294.4z" style="" fill="#ffffff" data-original="#ffffff" class=""></path></g><path d="M195.004 354.453c-9.956 0-19.911-4.267-25.6-12.8l-79.644-102.4c-11.378-14.222-8.533-34.133 5.689-45.511s34.133-8.533 45.511 5.689l54.044 69.689 119.467-155.022c11.378-14.222 31.289-17.067 45.511-5.689s17.067 31.289 5.689 45.511L220.604 341.653c-7.111 7.111-15.644 12.8-25.6 12.8z" style="" fill="#ffffff" data-original="#ffffff" class=""></path></g></svg>