<svg xmlns="http://www.w3.org/2000/svg" xml:space="preserve" viewBox="0 0 66 66"><path d="M47.5 9.2c.4-.4.4-1 0-1.4s-1.1-.4-1.4 0c-.4.4-.4 1 0 1.4s1 .4 1.4 0zm-14.2 0c.4-.4.4-1 0-1.4s-1.1-.4-1.4 0c-.4.4-.4 1 0 1.4.3.4 1 .4 1.4 0z" data-original="#000000"/><path d="m57.4 22.9-2.7-.9c-.4-1.5-1-3-1.8-4.3l1.3-2.6c.2-.4.1-.8-.2-1.2l-2.6-2.6c-.3-.3-.8-.4-1.2-.2l-2.6 1.3c-1.3-.8-2.8-1.4-4.3-1.8l-.9-2.8c-.1-.4-.5-.7-.9-.7h-3.7c-.4 0-.8.3-1 .7l-.8 2.8c-1.5.4-3 1-4.3 1.8l-2.6-1.3c-.4-.2-.9-.1-1.2.2l-2.6 2.6c-.3.3-.4.8-.2 1.2l1.3 2.6c-.8 1.3-1.4 2.8-1.8 4.3l-2.8.9c-.4.1-.7.5-.7 1v3.7c0 .4.3.8.7.9l2.8.9c.4 1.6 1 3 1.8 4.3l-1.3 2.6c-.2.4-.1.9.2 1.2L28 40c.3.3.8.4 1.2.2l2.6-1.3c1.3.8 2.8 1.4 4.3 1.8l.9 2.8c.1.4.5.7 1 .7h3.7c.4 0 .8-.3.9-.7l.9-2.8c1.5-.4 3-1 4.3-1.8l2.6 1.3c.4.2.9.1 1.2-.2l2.6-2.6c.3-.3.4-.8.2-1.2l-1.3-2.6c.8-1.3 1.4-2.8 1.8-4.3l2.8-.9c.4-.1.7-.5.7-.9v-3.7c-.3-.4-.6-.8-1-.9zm-17.7 10c-4 0-7.2-3.2-7.2-7.2s3.2-7.2 7.2-7.2 7.2 3.2 7.2 7.2-3.2 7.2-7.2 7.2z" data-original="#000000"/><path d="M39.7 1c-14 0-25.3 11.4-25.3 25.3 0 14 11.4 25.3 25.3 25.3 14 0 25.3-11.4 25.3-25.3S53.6 1 39.7 1zm0 48.6c-12.9 0-23.3-10.5-23.3-23.3S26.8 3 39.7 3C52.5 3 63 13.5 63 26.3S52.5 49.6 39.7 49.6zm-36.6 3C.3 55.4.3 60 3.1 62.9c2.8 2.8 7.4 2.8 10.3 0l8.2-8.2-10.2-10.3z" data-original="#000000"/><path d="M16 39.8 12.8 43 23 53.2l3.2-3.2c-4.3-2.4-7.8-5.9-10.2-10.2zm30.1 2.3c-.4.4-.4 1 0 1.4s1 .4 1.4 0 .4-1 0-1.4-1-.4-1.4 0zm10-10.1c-.4.4-.4 1 0 1.4s1 .4 1.4 0 .4-1 0-1.4c-.3-.3-1-.3-1.4 0zm1.4-12.8c.4-.4.4-1 0-1.4s-1-.4-1.4 0-.4 1 0 1.4 1.1.4 1.4 0zm-34.3 0c.4-.4.4-1 0-1.4s-1-.4-1.4 0-.4 1 0 1.4 1 .4 1.4 0zM21.8 32c-.4.4-.4 1 0 1.4s1 .4 1.4 0 .4-1 0-1.4c-.3-.3-1-.3-1.4 0zm10.1 10.1c-.4.4-.4 1 0 1.4s1 .4 1.4 0 .4-1 0-1.4-1-.4-1.4 0z" data-original="#000000"/></svg>