<svg xmlns="http://www.w3.org/2000/svg" xml:space="preserve" viewBox="0 0 64 64"><path d="M41.074 49.55a3.004 3.004 0 0 1 0-4.24l4.231-4.23a3.003 3.003 0 0 1 4.24-.002l.71.708-8.473 8.474Zm18.376 1.421L51.67 43.2l-8.474 8.475 7.77 7.78a5.999 5.999 0 1 0 8.484-8.484ZM48 25A23 23 0 1 1 25 2a23.026 23.026 0 0 1 23 23Zm-4 0a19 19 0 1 0-19 19 19.022 19.022 0 0 0 19-19Zm-5-1v2a2.002 2.002 0 0 1-2 2h-1.415a10.885 10.885 0 0 1-.981 2.36l1.002 1.004a2.009 2.009 0 0 1 0 2.828l-1.414 1.414a2 2 0 0 1-2.828 0l-1.003-1.002a10.895 10.895 0 0 1-2.361.981V37a2.002 2.002 0 0 1-2 2h-2a2.002 2.002 0 0 1-2-2v-1.415a10.885 10.885 0 0 1-2.36-.981l-1.004 1.002a2.047 2.047 0 0 1-2.828 0l-1.414-1.414a2.009 2.009 0 0 1 0-2.828l1.002-1.003A10.885 10.885 0 0 1 14.415 28H13a2.002 2.002 0 0 1-2-2v-2a2.002 2.002 0 0 1 2-2h1.415a10.885 10.885 0 0 1 .981-2.36l-1.002-1.004a2.009 2.009 0 0 1 0-2.828l1.414-1.414a2.047 2.047 0 0 1 2.828 0l1.003 1.002A10.885 10.885 0 0 1 22 14.415V13a2.002 2.002 0 0 1 2-2h2a2.002 2.002 0 0 1 2 2v1.415a10.895 10.895 0 0 1 2.36.981l1.004-1.002a2 2 0 0 1 2.828 0l1.414 1.414a2.009 2.009 0 0 1 0 2.828l-1.002 1.003A10.885 10.885 0 0 1 35.585 22H37a2.002 2.002 0 0 1 2 2Zm-8 1a6 6 0 1 0-6 6 6.007 6.007 0 0 0 6-6Z" data-original="#000000"/></svg>