<svg xmlns="http://www.w3.org/2000/svg" xml:space="preserve" viewBox="0 0 66 66"><path d="m63.1 45.3-9.6-9.6c-.4-.4-1-.4-1.4 0l-.8.8-3.5-3.5c2.1-3.3 3.4-7.1 3.4-11.3C51.1 3.5 28.9-6 15.8 7.1 2.8 20 12 42.4 30.4 42.4c4.2 0 8.1-1.2 11.3-3.4l3.5 3.5-.8.8c-.4.4-.4 1 0 1.4l9.6 9.6c2.5 2.5 6.6 2.5 9.1 0 2.5-2.4 2.5-6.5 0-9zM17.2 8.5C20.8 4.8 25.6 3 30.4 3c10.3 0 18.7 8.3 18.7 18.7 0 10.3-8.4 18.7-18.7 18.7-16.6 0-24.9-20.2-13.2-31.9zm29.4 32.6-3.3-3.3c1.2-.9 2.3-2 3.2-3.2l3.3 3.3zM23.7 51l-1.7-.4c-.2-.7-.5-1.4-.8-2l.9-1.4c.3-.4.2-.9-.1-1.2l-1.9-2c-.3-.3-.8-.4-1.2-.1l-1.4.9c-.6-.3-1.3-.6-2-.8l-.5-1.7c-.1-.5-.5-.8-1-.8h-2.6c-.5 0-.9.3-1 .8l-.3 1.7c-.7.2-1.4.5-2 .8l-1.4-.9c-.4-.3-.9-.2-1.2.1l-1.9 1.9c-.3.3-.4.8-.1 1.3l.9 1.4c-.4.6-.6 1.3-.8 2l-1.8.4c-.5.1-.8.5-.8 1v2.6c0 .5.3.9.8 1l1.7.4c.2.7.5 1.4.8 2l-.9 1.4c-.3.4-.2.9.1 1.3l1.9 1.9c.3.3.9.4 1.2.1l1.4-1c.6.4 1.3.6 2 .8l.4 1.7c.1.5.5.8 1 .8H14c.5 0 .9-.3 1-.8l.4-1.7c.7-.2 1.4-.5 2-.8l1.4.9c.4.3.9.2 1.2-.1l1.9-1.9c.3-.3.4-.8.1-1.3l-.8-1.3c.4-.6.6-1.3.8-2l1.7-.4c.5-.1.8-.5.8-1V52c0-.5-.4-.9-.8-1zm-11 6.8c-2.5 0-4.5-2-4.5-4.5s2-4.5 4.5-4.5 4.5 2 4.5 4.5-2 4.5-4.5 4.5z" data-original="#000000"/><path d="M41.2 27.9c.5-.9 1-1.9 1.2-3l2.4-.5c.5-.1.8-.5.8-1V20c0-.5-.3-.9-.8-1l-2.4-.5c-.3-1-.7-2-1.2-3l1.3-2c.3-.4.2-.9-.1-1.3l-2.5-2.5c-.3-.3-.8-.4-1.3-.1l-2 1.3c-.9-.5-1.9-1-3-1.2l-.5-2.4c-.1-.5-.5-.8-1-.8h-3.5c-.5 0-.9.3-1 .8l-.5 2.4c-1 .3-2 .7-3 1.2l-2-1.3c-.4-.3-.9-.2-1.3.1l-2.5 2.5c-.3.3-.4.9-.1 1.3l1.3 2.1c-.5.9-1 1.9-1.2 3L16 19c-.5.1-.8.5-.8 1v3.5c0 .5.3.9.8 1l2.4.5c.3 1 .7 2 1.2 2.9L18.3 30c-.3.4-.2.9.1 1.3l2.5 2.5c.3.3.8.4 1.3.1l2-1.3c.9.5 1.9 1 3 1.2l.5 2.4c.1.5.5.8 1 .8h3.5c.5 0 .9-.3 1-.8l.5-2.4c1-.3 2-.7 3-1.2l2 1.3c.4.3.9.2 1.3-.1l2.5-2.5c.3-.3.4-.8.1-1.2zm-10.8-.5c-3.1 0-5.6-2.5-5.6-5.6s2.5-5.6 5.6-5.6 5.6 2.5 5.6 5.6c.1 3-2.5 5.6-5.6 5.6z" data-original="#000000"/></svg>