<svg xmlns="http://www.w3.org/2000/svg" xmlns:xlink="http://www.w3.org/1999/xlink" xml:space="preserve" viewBox="0 0 510 510"><linearGradient id="b" x1="250.796" x2="274.511" y1="451.233" y2="551.175" gradientUnits="userSpaceOnUse"><stop offset="0" stop-color="#ffda45"/><stop offset="1" stop-color="#ffa425"/></linearGradient><linearGradient id="c" x1="354.13" x2="290.989" y1="487.945" y2="407.385" gradientUnits="userSpaceOnUse"><stop offset="0" stop-color="#ffda45" stop-opacity="0"/><stop offset="1" stop-color="#b53759"/></linearGradient><linearGradient id="a"><stop offset="0" stop-color="#ff7044"/><stop offset="1" stop-color="#f92814"/></linearGradient><linearGradient xlink:href="#a" id="d" x1="128.713" x2="546.212" y1="82.948" y2="500.447" gradientUnits="userSpaceOnUse"/><linearGradient id="e" x1="210.128" x2="63.414" y1="164.487" y2="17.773" gradientUnits="userSpaceOnUse"><stop offset="0" stop-color="#ff7044" stop-opacity="0"/><stop offset="1" stop-color="#ffa425"/></linearGradient><linearGradient xlink:href="#a" id="f" x1="175.69" x2="438.018" y1="221.448" y2="483.776" gradientTransform="rotate(180 255 255)" gradientUnits="userSpaceOnUse"/><linearGradient id="g" x1="391.836" x2="275.569" y1="346.078" y2="229.811" gradientUnits="userSpaceOnUse"><stop offset="0" stop-color="#f92814" stop-opacity="0"/><stop offset="1" stop-color="#c1272d"/></linearGradient><linearGradient id="h" x1="228.916" x2="291.88" y1="169.464" y2="265.484" gradientUnits="userSpaceOnUse"><stop offset="0" stop-color="#f9f7fc"/><stop offset="1" stop-color="#f0ddfc"/></linearGradient><ellipse cx="255" cy="468.948" fill="url(#b)" data-original="url(#b)" rx="190.908" ry="41.052"/><path fill="url(#c)" d="M445.908 468.948c0-22.672-85.472-41.052-190.908-41.052-17.54 0-34.521.511-50.655 1.464l35.735 52.572a18.134 18.134 0 0 0 3.438 3.781l24.194 24.194c99.507-1.407 178.196-19.205 178.196-40.959z" data-original="url(#c)"/><path fill="url(#d)" d="M464.242 209.242C464.242 93.681 370.562 0 255.001 0 139.943 0 46.922 92.043 45.768 207.096c-.871 86.895 51.236 161.713 125.996 194.162a72.037 72.037 0 0 1 30.878 25.597l37.438 55.077c7.159 10.531 22.68 10.531 29.839 0l37.437-55.076c7.643-11.244 18.288-20.142 30.763-25.547 74.206-32.156 126.123-106.043 126.123-192.067z" data-original="url(#d)"/><path fill="url(#e)" d="M255 479.404c-1.212 0-4.252-.325-6.297-3.333l-37.437-55.078c-8.804-12.952-21.028-23.084-35.35-29.299C102.384 359.777 55.391 287.359 56.195 207.2c.53-52.876 21.416-102.377 58.81-139.386C152.395 30.809 202.118 10.427 255 10.427h.001c109.627 0 198.815 89.189 198.815 198.816 0 79.317-47.041 150.952-119.842 182.499-14.24 6.171-26.426 16.286-35.24 29.253l-37.437 55.077c-2.045 3.007-5.085 3.332-6.297 3.332z" data-original="url(#e)"/><circle cx="255" cy="209.242" r="131.528" fill="url(#f)" data-original="url(#f)"/><path fill="url(#g)" d="M457.696 261.338 332.734 136.376c-19.44-20.73-47.072-33.686-77.734-33.686-58.847 0-106.552 47.705-106.552 106.552 0 30.662 12.956 58.294 33.686 77.734L313.83 418.672c6.767-7.401 15.022-13.348 24.29-17.363 58.689-25.433 103.429-76.972 119.576-139.971z" data-original="url(#g)"/><circle cx="255" cy="209.242" r="106.552" fill="url(#h)" data-original="url(#h)"/></svg>