<svg xmlns="http://www.w3.org/2000/svg" xml:space="preserve" viewBox="0 0 512 512"><path fill="#878787" d="M142.89 26.506h29.262v482.087H142.89z" data-original="#878787"/><path fill="#878787" d="M210.48 512H104.562a3.418 3.418 0 1 1 0-6.836H210.48a3.418 3.418 0 1 1 0 6.836z" data-original="#878787"/><circle cx="157.521" cy="26.506" r="26.506" fill="#eef0ee" data-original="#eef0ee"/><path fill="#f8664f" d="M410.458 143.599c1.487 2.516-1.504 5.317-3.902 3.646-37.107-25.866-74.213 25.546-111.319 62.968-20.514 20.763-41.028 36.313-61.542 41.631-20.514 6.435-41.028 2.636-61.542 10.453V53.985c20.514 9.542 41.028 30.702 61.542 41.619 20.514 12.034 41.028 13.825 61.542 10.506 38.407-6.261 76.814-27.51 115.221 37.489z" data-original="#f8664f"/></svg>