<svg xmlns="http://www.w3.org/2000/svg" xml:space="preserve" viewBox="0 0 56 68"><path d="M19 46h-3v16a6 6 0 0 1-6 6H6a6 6 0 0 1-6-6V6a6 6 0 0 1 6-6h4a6.002 6.002 0 0 1 5.659 4H39a6 6 0 0 1 6 6v4h5a6 6 0 0 1 6 6v4a2 2 0 0 1-2 2H32a2 2 0 0 1-2-2v-4a6 6 0 0 1 6-6h5v-4a2 2 0 0 0-2-2H16v34h3v-2a2 2 0 0 1 4 0v8a2 2 0 0 1-4 0zm14 8a2 2 0 1 1 0-4 2 2 0 0 1 0 4zm0-20a2 2 0 1 1 0-4 2 2 0 0 1 0 4zm20 20a2 2 0 1 1 0-4 2 2 0 0 1 0 4zm0-20a2 2 0 1 1 0-4 2 2 0 0 1 0 4zM43 54a2 2 0 1 1 0-4 2 2 0 0 1 0 4zM33 64a2 2 0 1 1 0-4 2 2 0 0 1 0 4zm20 0a2 2 0 1 1 0-4 2 2 0 0 1 0 4zm-10 0a2 2 0 1 1 0-4 2 2 0 0 1 0 4zm0-30a2 2 0 1 1 0-4 2 2 0 0 1 0 4zM33 44a2 2 0 1 1 0-4 2 2 0 0 1 0 4zm20 0a2 2 0 1 1 0-4 2 2 0 0 1 0 4zm-10 0a2 2 0 1 1 0-4 2 2 0 0 1 0 4z" data-original="#000000"/></svg>