<svg xmlns="http://www.w3.org/2000/svg" xml:space="preserve" viewBox="0 0 64 64"><path d="M60 37h-5.035c.999-.742 1.69-3.802 1.934-5H41.101c.244 1.198.935 4.258 1.934 5H38v2h22zm0 4H38v6h22zm-7 4h-7v-2h7zm-4-21c5.514 0 10-4.486 10-10 0-3.417-1.724-6.435-4.346-8.24l-7.947 7.947-1.414-1.414 7.53-7.53A9.935 9.935 0 0 0 49 4c-5.514 0-10 4.486-10 10s4.486 10 10 10zm4.293-13.707 1.414 1.414-9 9-1.414-1.414zm-10 4 1.414 1.414-2 2-1.414-1.414zM13 9h10v2H13z" data-original="#000000"/><path d="M32 4H19v3h5a1 1 0 0 1 1 1v4a1 1 0 0 1-1 1H12a1 1 0 0 1-1-1V8a1 1 0 0 1 1-1h5V4H4v56H2v2h54v-2H32zM21 15h2v3h-2zm0 5h2v2h-2zm-4-5h2v6h-2zm0 8h2v2h-2zm-4-8h2v3h-2zm0 5h2v2h-2zm4 40V36h2v3h2v2h-2v19zm42 0h3v2h-3zM48 25h2v3h-2z" data-original="#000000"/></svg>