<svg xmlns="http://www.w3.org/2000/svg" xml:space="preserve" overflow="visible" viewBox="0 0 512.1 512"><path d="M236.4 50.3C234.1 23.8 214 2.8 188.6 1.1c-15.3-1-36.3-1.5-65.2-.3S73.5 4.3 58 6.6C32.4 10.5 10.5 32.4 6.6 58 4.3 73.5 2 94.6.7 123.4s-.7 49.8.4 65.2c1.8 25.5 22.7 45.6 49.3 47.8 16 1.3 37.8 2.2 67.8 2.1s51.9-1.1 67.8-2.6c26.6-2.4 47.6-23.4 50-50 1.4-15.9 2.5-37.9 2.6-67.8s-.9-51.8-2.2-67.8zM505.5 58c-3.9-25.6-25.8-47.5-51.4-51.4C438.6 4.3 417.5 2 388.7.7s-49.9-.7-65.2.4c-25.5 1.8-45.6 22.7-47.8 49.3-1.3 16-2.2 37.8-2.1 67.8s1.1 51.9 2.6 67.8c2.4 26.6 23.4 47.6 50 50 16 1.4 37.9 2.5 67.8 2.6s51.8-.8 67.8-2.1c26.5-2.2 47.5-22.3 49.3-47.8 1.1-15.3 1.6-36.4.3-65.2-1.3-28.9-3.6-50-5.9-65.5zM235.9 326.1c-2.4-26.6-23.4-47.6-50-50-16-1.4-37.8-2.5-67.8-2.6s-51.8.8-67.8 2.1C23.8 277.9 2.8 298 1.1 323.5c-1 15.3-1.5 36.4-.3 65.2s3.5 49.9 5.9 65.4c4 25.6 25.8 47.5 51.4 51.4 15.4 2.3 36.5 4.6 65.3 5.9 28.8 1.3 49.8.7 65.2-.3 25.4-1.8 45.6-22.7 47.8-49.3 1.3-16 2.2-37.8 2.1-67.8s-1.1-52-2.6-67.9zM511 323.5c-1.8-25.4-22.7-45.6-49.3-47.8-16-1.3-37.8-2.2-67.8-2.1s-51.9 1.1-67.8 2.6c-26.6 2.4-47.6 23.4-50 50-1.4 16-2.5 37.9-2.6 67.8s.8 51.8 2.1 67.8c2.2 26.5 22.4 47.5 47.8 49.3 15.3 1.1 36.4 1.6 65.2.3 28.8-1.2 49.9-3.5 65.4-5.9 25.6-4 47.5-25.8 51.5-51.5 2.3-15.4 4.6-36.5 5.9-65.4 1.2-28.7.6-49.8-.4-65.1z"/></svg>