<svg xmlns="http://www.w3.org/2000/svg" viewBox="0 0 426.67 469.28"><g id="Calque_2" data-name="Calque 2"><g id="Calque_1-2" data-name="Calque 1"><path d="M379.09,88.9l-106.66-71a106.71,106.71,0,0,0-118.19,0L47.57,88.9A106.68,106.68,0,0,0,0,177.65v185A106.67,106.67,0,0,0,106.67,469.28H320A106.67,106.67,0,0,0,426.67,362.61v-185A106.69,106.69,0,0,0,379.09,88.9ZM170.67,426.61V319.94A21.33,21.33,0,0,1,192,298.61h42.67A21.33,21.33,0,0,1,256,319.94V426.61Zm213.33-64a64,64,0,0,1-64,64H298.67V319.94a64,64,0,0,0-64-64H192a64,64,0,0,0-64,64V426.61H106.67a64,64,0,0,1-64-64v-185a64,64,0,0,1,28.58-53.12L177.92,53.28a64,64,0,0,1,70.83,0l106.66,71.25A64,64,0,0,1,384,177.65Z" fill="#3a3a3a"/></g></g></svg>