<svg xmlns="http://www.w3.org/2000/svg" xml:space="preserve" overflow="visible" viewBox="0 0 512 366.9"><path d="M506.3 114.5 368.3 3.4c-5.6-4.5-13.5-4.5-19.1 0l-17.6 14.1 91 73.3c10.8 8.7 17 21.7 17 35.6v225.4c0 5.3-.9 10.5-2.6 15.2h59.7c8.4 0 15.2-6.8 15.2-15.2V126.3c.1-4.6-2-8.9-5.6-11.8z"/><path d="M403.6 114.5 265.5 3.4c-5.6-4.5-13.5-4.5-19.1 0l-17.6 14.1 91 73.3c10.8 8.7 17 21.7 17 35.6v225.4c0 5.3-.9 10.5-2.6 15.2H394c8.4 0 15.2-6.8 15.2-15.2V126.3c.1-4.6-2-8.9-5.6-11.8z"/><path d="M300.8 114.5 162.8 3.4c-5.6-4.5-13.5-4.5-19.1 0L5.7 114.5c-3.6 2.9-5.7 7.2-5.7 11.9v225.4c0 8.4 6.8 15.2 15.2 15.2H110c8.4 0 15.2-6.8 15.2-15.2v-67.9c0-15.5 12.6-28 28-28s28 12.6 28 28v67.9c0 8.4 6.8 15.2 15.2 15.2h94.8c8.4 0 15.2-6.8 15.2-15.2V126.3c.1-4.6-2-8.9-5.6-11.8z"/></svg>