<svg xmlns="http://www.w3.org/2000/svg" viewBox="0 0 371.72 37.06"><defs><linearGradient id="linear-gradient" x1="4.96" x2="366.77" y1="17.62" y2="17.62" gradientUnits="userSpaceOnUse"><stop offset="0" stop-color="#2ab50b"/><stop offset=".25" stop-color="#7cff54"/><stop offset=".5" stop-color="#e6df1c"/><stop offset=".75" stop-color="#c45d16"/><stop offset="1" stop-color="#b6120e"/></linearGradient><linearGradient id="linear-gradient-2" x1="185.86" x2="185.86" y1="35.25" gradientUnits="userSpaceOnUse"><stop offset="0" stop-color="#9e9e9e"/><stop offset=".15" stop-color="#b7b7b7"/><stop offset=".37" stop-color="#d4d4d4"/><stop offset=".59" stop-color="#e9e9e9"/><stop offset=".8" stop-color="#f6f6f6"/><stop offset="1" stop-color="#fafafa"/></linearGradient><linearGradient id="linear-gradient-3" x1="185.86" x2="185.86" y1="34.63" y2=".62" gradientUnits="userSpaceOnUse"><stop offset="0" stop-color="#d1d1d1"/><stop offset=".2" stop-color="#dadada"/><stop offset=".61" stop-color="#e7e7e7"/><stop offset="1" stop-color="#ebebeb"/></linearGradient><clipPath id="clip-path"><path d="M69.81 27.36a4.36 4.36 0 0 1-4.12 2.93H7.16a2.2 2.2 0 0 1-2.08-2.93L13 7.89A4.35 4.35 0 0 1 17.12 5h58.54a2.2 2.2 0 0 1 2.08 2.93ZM150 7.89A2.2 2.2 0 0 0 147.88 5H89.35a4.37 4.37 0 0 0-4.12 2.93l-7.92 19.43a2.2 2.2 0 0 0 2.08 2.93h58.53a4.37 4.37 0 0 0 4.08-2.93Zm72.23 0A2.2 2.2 0 0 0 220.11 5h-58.53a4.37 4.37 0 0 0-4.12 2.93l-7.93 19.47a2.2 2.2 0 0 0 2.08 2.93h58.54a4.36 4.36 0 0 0 4.11-2.93Zm72.23 0A2.21 2.21 0 0 0 292.34 5H233.8a4.37 4.37 0 0 0-4.12 2.93l-7.92 19.47a2.2 2.2 0 0 0 2.08 2.93h58.53a4.37 4.37 0 0 0 4.12-2.93Zm72.22 0A2.2 2.2 0 0 0 364.56 5H306a4.37 4.37 0 0 0-4.12 2.93L294 27.36a2.21 2.21 0 0 0 2.08 2.93h58.52a4.37 4.37 0 0 0 4.12-2.93Z" class="cls-1"/></clipPath><style>.cls-1{fill:url(#linear-gradient)}.cls-25{fill:#fff}</style></defs><g style="isolation:isolate"><g id="Layer_7" data-name="Layer 7"><path fill="url(#linear-gradient-2)" d="M7.16 35.25A7.16 7.16 0 0 1 .4 25.73L8.32 6.25A9.33 9.33 0 0 1 17.12 0h347.44a7.17 7.17 0 0 1 6.77 9.52L363.4 29a9.33 9.33 0 0 1-8.8 6.26Z"/><path fill="url(#linear-gradient-3)" d="M369.89 3.37a6.54 6.54 0 0 0-5.33-2.75H17.12a8.71 8.71 0 0 0-8.21 5.84L1 25.93a6.56 6.56 0 0 0 6.18 8.7H354.6a8.7 8.7 0 0 0 8.21-5.84l7.93-19.48a6.52 6.52 0 0 0-.85-5.94Z"/><path d="M69.81 27.36a4.36 4.36 0 0 1-4.12 2.93H7.16a2.2 2.2 0 0 1-2.08-2.93L13 7.89A4.35 4.35 0 0 1 17.12 5h58.54a2.2 2.2 0 0 1 2.08 2.93ZM150 7.89A2.2 2.2 0 0 0 147.88 5H89.35a4.37 4.37 0 0 0-4.12 2.93l-7.92 19.43a2.2 2.2 0 0 0 2.08 2.93h58.53a4.37 4.37 0 0 0 4.08-2.93Zm72.23 0A2.2 2.2 0 0 0 220.11 5h-58.53a4.37 4.37 0 0 0-4.12 2.93l-7.93 19.47a2.2 2.2 0 0 0 2.08 2.93h58.54a4.36 4.36 0 0 0 4.11-2.93Zm72.23 0A2.21 2.21 0 0 0 292.34 5H233.8a4.37 4.37 0 0 0-4.12 2.93l-7.92 19.47a2.2 2.2 0 0 0 2.08 2.93h58.53a4.37 4.37 0 0 0 4.12-2.93Zm72.22 0A2.2 2.2 0 0 0 364.56 5H306a4.37 4.37 0 0 0-4.12 2.93L294 27.36a2.21 2.21 0 0 0 2.08 2.93h58.52a4.37 4.37 0 0 0 4.12-2.93Z" class="cls-1"/><g clip-path="url(#clip-path)" style="mix-blend-mode:multiply"><path fill="#a87466" d="M366.64 7.89A2.2 2.2 0 0 0 364.56 5H306a4.37 4.37 0 0 0-4.12 2.93L294 27.36a2.21 2.21 0 0 0 2.08 2.93h58.52a4.37 4.37 0 0 0 4.12-2.93Zm-72.22 0A2.21 2.21 0 0 0 292.34 5H233.8a4.37 4.37 0 0 0-4.12 2.93l-7.92 19.47a2.2 2.2 0 0 0 2.08 2.93h58.53a4.37 4.37 0 0 0 4.12-2.93ZM69.81 27.36a4.36 4.36 0 0 1-4.12 2.93H7.16a2.2 2.2 0 0 1-2.08-2.93L13 7.89A4.35 4.35 0 0 1 17.12 5h58.54a2.2 2.2 0 0 1 2.08 2.93ZM150 7.89A2.2 2.2 0 0 0 147.88 5H89.35a4.37 4.37 0 0 0-4.12 2.93l-7.92 19.43a2.2 2.2 0 0 0 2.08 2.93h58.53a4.37 4.37 0 0 0 4.08-2.93Zm72.23 0A2.2 2.2 0 0 0 220.11 5h-58.53a4.37 4.37 0 0 0-4.12 2.93l-7.93 19.47a2.2 2.2 0 0 0 2.08 2.93h58.54a4.36 4.36 0 0 0 4.11-2.93Z"/><path fill="#ad7c6f" d="M366.64 8.28a2.2 2.2 0 0 0-2.08-2.92H306a4.38 4.38 0 0 0-4.12 2.92L294 27.76a2.2 2.2 0 0 0 2.08 2.92h58.52a4.37 4.37 0 0 0 4.12-2.92Zm-72.22 0a2.2 2.2 0 0 0-2.08-2.92H233.8a4.38 4.38 0 0 0-4.12 2.92l-7.92 19.48a2.2 2.2 0 0 0 2.08 2.92h58.53a4.37 4.37 0 0 0 4.12-2.92ZM69.81 27.76a4.36 4.36 0 0 1-4.12 2.92H7.16a2.2 2.2 0 0 1-2.08-2.92L13 8.28a4.36 4.36 0 0 1 4.11-2.92h58.55a2.2 2.2 0 0 1 2.08 2.92ZM150 8.28a2.2 2.2 0 0 0-2.08-2.92H89.35a4.38 4.38 0 0 0-4.12 2.92l-7.92 19.48a2.2 2.2 0 0 0 2.08 2.92h58.53a4.37 4.37 0 0 0 4.08-2.92Zm72.23 0a2.2 2.2 0 0 0-2.08-2.92h-58.57a4.38 4.38 0 0 0-4.12 2.92l-7.93 19.48a2.2 2.2 0 0 0 2.08 2.92h58.54a4.35 4.35 0 0 0 4.11-2.92Z" opacity=".94"/><path fill="#b28478" d="M366.64 8.68a2.2 2.2 0 0 0-2.08-2.93H306a4.37 4.37 0 0 0-4.12 2.93L294 28.16a2.2 2.2 0 0 0 2.08 2.92h58.52a4.38 4.38 0 0 0 4.12-2.92Zm-72.22 0a2.21 2.21 0 0 0-2.08-2.93H233.8a4.37 4.37 0 0 0-4.12 2.93l-7.92 19.48a2.2 2.2 0 0 0 2.08 2.92h58.53a4.38 4.38 0 0 0 4.12-2.92ZM69.81 28.16a4.37 4.37 0 0 1-4.12 2.92H7.16a2.2 2.2 0 0 1-2.08-2.92L13 8.68a4.35 4.35 0 0 1 4.11-2.93h58.55a2.2 2.2 0 0 1 2.08 2.93ZM150 8.68a2.2 2.2 0 0 0-2.08-2.93H89.35a4.37 4.37 0 0 0-4.12 2.93l-7.92 19.48a2.2 2.2 0 0 0 2.08 2.92h58.53a4.38 4.38 0 0 0 4.08-2.92Zm72.23 0a2.2 2.2 0 0 0-2.08-2.93h-58.57a4.37 4.37 0 0 0-4.12 2.93l-7.93 19.48a2.2 2.2 0 0 0 2.08 2.92h58.54a4.37 4.37 0 0 0 4.11-2.92Z" opacity=".88"/><path fill="#b78d81" d="M366.64 9.08a2.2 2.2 0 0 0-2.08-2.93H306a4.37 4.37 0 0 0-4.12 2.93L294 28.55a2.21 2.21 0 0 0 2.08 2.93h58.52a4.37 4.37 0 0 0 4.12-2.93Zm-72.22 0a2.21 2.21 0 0 0-2.08-2.93H233.8a4.37 4.37 0 0 0-4.12 2.93l-7.92 19.47a2.2 2.2 0 0 0 2.08 2.93h58.53a4.37 4.37 0 0 0 4.12-2.93ZM69.81 28.55a4.36 4.36 0 0 1-4.12 2.93H7.16a2.2 2.2 0 0 1-2.08-2.93L13 9.08a4.35 4.35 0 0 1 4.11-2.93h58.55a2.2 2.2 0 0 1 2.08 2.93ZM150 9.08a2.2 2.2 0 0 0-2.08-2.93H89.35a4.37 4.37 0 0 0-4.12 2.93l-7.92 19.47a2.2 2.2 0 0 0 2.08 2.93h58.53a4.37 4.37 0 0 0 4.08-2.93Zm72.23 0a2.2 2.2 0 0 0-2.08-2.93h-58.57a4.37 4.37 0 0 0-4.12 2.93l-7.93 19.47a2.2 2.2 0 0 0 2.08 2.93h58.54a4.36 4.36 0 0 0 4.11-2.93Z" opacity=".82"/><path fill="#bc958a" d="M366.64 9.48a2.2 2.2 0 0 0-2.08-2.93H306a4.37 4.37 0 0 0-4.12 2.93L294 29a2.21 2.21 0 0 0 2.08 2.93h58.52a4.37 4.37 0 0 0 4.12-2.93Zm-72.22 0a2.21 2.21 0 0 0-2.08-2.93H233.8a4.37 4.37 0 0 0-4.12 2.93L221.76 29a2.2 2.2 0 0 0 2.08 2.93h58.53a4.37 4.37 0 0 0 4.12-2.93ZM69.81 29a4.36 4.36 0 0 1-4.12 2.93H7.16A2.2 2.2 0 0 1 5.08 29L13 9.48a4.35 4.35 0 0 1 4.11-2.93h58.55a2.2 2.2 0 0 1 2.08 2.93ZM150 9.48a2.2 2.2 0 0 0-2.08-2.93H89.35a4.37 4.37 0 0 0-4.12 2.93L77.31 29a2.2 2.2 0 0 0 2.08 2.93h58.53A4.37 4.37 0 0 0 142 29Zm72.23 0a2.2 2.2 0 0 0-2.08-2.93h-58.57a4.37 4.37 0 0 0-4.12 2.93L149.53 29a2.2 2.2 0 0 0 2.08 2.93h58.54a4.36 4.36 0 0 0 4.11-2.93Z" opacity=".76"/><path fill="#c29d93" d="M366.64 9.88A2.2 2.2 0 0 0 364.56 7H306a4.37 4.37 0 0 0-4.12 2.93L294 29.35a2.21 2.21 0 0 0 2.08 2.93h58.52a4.37 4.37 0 0 0 4.12-2.93Zm-72.22 0A2.21 2.21 0 0 0 292.34 7H233.8a4.37 4.37 0 0 0-4.12 2.93l-7.92 19.47a2.2 2.2 0 0 0 2.08 2.93h58.53a4.37 4.37 0 0 0 4.12-2.93ZM69.81 29.35a4.36 4.36 0 0 1-4.12 2.93H7.16a2.2 2.2 0 0 1-2.08-2.93L13 9.88A4.35 4.35 0 0 1 17.12 7h58.54a2.2 2.2 0 0 1 2.08 2.93ZM150 9.88A2.2 2.2 0 0 0 147.88 7H89.35a4.37 4.37 0 0 0-4.12 2.93l-7.92 19.42a2.2 2.2 0 0 0 2.08 2.93h58.53a4.37 4.37 0 0 0 4.08-2.93Zm72.23 0A2.2 2.2 0 0 0 220.11 7h-58.53a4.37 4.37 0 0 0-4.12 2.93l-7.93 19.47a2.2 2.2 0 0 0 2.08 2.93h58.54a4.36 4.36 0 0 0 4.11-2.93Z" opacity=".71"/><path fill="#c7a59c" d="M366.64 10.28a2.2 2.2 0 0 0-2.08-2.93H306a4.37 4.37 0 0 0-4.12 2.93L294 29.75a2.21 2.21 0 0 0 2.08 2.93h58.52a4.37 4.37 0 0 0 4.12-2.93Zm-72.22 0a2.21 2.21 0 0 0-2.08-2.93H233.8a4.37 4.37 0 0 0-4.12 2.93l-7.92 19.47a2.2 2.2 0 0 0 2.08 2.93h58.53a4.37 4.37 0 0 0 4.12-2.93ZM69.81 29.75a4.36 4.36 0 0 1-4.12 2.93H7.16a2.2 2.2 0 0 1-2.08-2.93L13 10.28a4.35 4.35 0 0 1 4.11-2.93h58.55a2.2 2.2 0 0 1 2.08 2.93ZM150 10.28a2.2 2.2 0 0 0-2.08-2.93H89.35a4.37 4.37 0 0 0-4.12 2.93l-7.92 19.47a2.2 2.2 0 0 0 2.08 2.93h58.53a4.37 4.37 0 0 0 4.08-2.93Zm72.23 0a2.2 2.2 0 0 0-2.08-2.93h-58.57a4.37 4.37 0 0 0-4.12 2.93l-7.93 19.47a2.21 2.21 0 0 0 2.08 2.93h58.54a4.36 4.36 0 0 0 4.11-2.93Z" opacity=".65"/><path fill="#ccada5" d="M366.64 10.67a2.2 2.2 0 0 0-2.08-2.92H306a4.38 4.38 0 0 0-4.12 2.92L294 30.15a2.21 2.21 0 0 0 2.08 2.93h58.52a4.37 4.37 0 0 0 4.12-2.93Zm-72.22 0a2.2 2.2 0 0 0-2.08-2.92H233.8a4.38 4.38 0 0 0-4.12 2.92l-7.92 19.48a2.2 2.2 0 0 0 2.08 2.93h58.53a4.37 4.37 0 0 0 4.12-2.93ZM69.81 30.15a4.36 4.36 0 0 1-4.12 2.93H7.16a2.2 2.2 0 0 1-2.08-2.93L13 10.67a4.36 4.36 0 0 1 4.11-2.92h58.55a2.2 2.2 0 0 1 2.08 2.92ZM150 10.67a2.2 2.2 0 0 0-2.08-2.92H89.35a4.38 4.38 0 0 0-4.12 2.92l-7.92 19.48a2.2 2.2 0 0 0 2.08 2.93h58.53a4.37 4.37 0 0 0 4.08-2.93Zm72.23 0a2.2 2.2 0 0 0-2.08-2.92h-58.57a4.38 4.38 0 0 0-4.12 2.92l-7.93 19.48a2.2 2.2 0 0 0 2.08 2.93h58.54a4.36 4.36 0 0 0 4.11-2.93Z" opacity=".59"/><path fill="#d1b5ae" d="M366.64 11.07a2.2 2.2 0 0 0-2.08-2.92H306a4.38 4.38 0 0 0-4.12 2.92L294 30.55a2.2 2.2 0 0 0 2.08 2.92h58.52a4.37 4.37 0 0 0 4.12-2.92Zm-72.22 0a2.2 2.2 0 0 0-2.08-2.92H233.8a4.38 4.38 0 0 0-4.12 2.92l-7.92 19.48a2.2 2.2 0 0 0 2.08 2.92h58.53a4.37 4.37 0 0 0 4.12-2.92ZM69.81 30.55a4.36 4.36 0 0 1-4.12 2.92H7.16a2.2 2.2 0 0 1-2.08-2.92L13 11.07a4.36 4.36 0 0 1 4.11-2.92h58.55a2.2 2.2 0 0 1 2.08 2.92ZM150 11.07a2.2 2.2 0 0 0-2.08-2.92H89.35a4.38 4.38 0 0 0-4.12 2.92l-7.92 19.48a2.2 2.2 0 0 0 2.08 2.92h58.53a4.37 4.37 0 0 0 4.08-2.92Zm72.23 0a2.2 2.2 0 0 0-2.08-2.92h-58.57a4.38 4.38 0 0 0-4.12 2.92l-7.93 19.48a2.2 2.2 0 0 0 2.08 2.92h58.54a4.35 4.35 0 0 0 4.11-2.92Z" opacity=".53"/><path fill="#d6beb7" d="M366.64 11.47a2.2 2.2 0 0 0-2.08-2.93H306a4.37 4.37 0 0 0-4.12 2.93L294 30.94a2.21 2.21 0 0 0 2.08 2.93h58.52a4.37 4.37 0 0 0 4.12-2.93Zm-72.22 0a2.21 2.21 0 0 0-2.08-2.93H233.8a4.37 4.37 0 0 0-4.12 2.93l-7.92 19.47a2.2 2.2 0 0 0 2.08 2.93h58.53a4.37 4.37 0 0 0 4.12-2.93ZM69.81 30.94a4.36 4.36 0 0 1-4.12 2.93H7.16a2.2 2.2 0 0 1-2.08-2.93L13 11.47a4.35 4.35 0 0 1 4.11-2.93h58.55a2.2 2.2 0 0 1 2.08 2.93ZM150 11.47a2.2 2.2 0 0 0-2.08-2.93H89.35a4.37 4.37 0 0 0-4.12 2.93l-7.92 19.47a2.2 2.2 0 0 0 2.08 2.93h58.53a4.37 4.37 0 0 0 4.08-2.93Zm72.23 0a2.2 2.2 0 0 0-2.08-2.93h-58.57a4.37 4.37 0 0 0-4.12 2.93l-7.93 19.47a2.2 2.2 0 0 0 2.08 2.93h58.54a4.36 4.36 0 0 0 4.11-2.93Z" opacity=".47"/><path fill="#dbc6c0" d="M366.64 11.87a2.2 2.2 0 0 0-2.08-2.93H306a4.37 4.37 0 0 0-4.12 2.93L294 31.34a2.21 2.21 0 0 0 2.08 2.93h58.52a4.37 4.37 0 0 0 4.12-2.93Zm-72.22 0a2.21 2.21 0 0 0-2.08-2.93H233.8a4.37 4.37 0 0 0-4.12 2.93l-7.92 19.47a2.2 2.2 0 0 0 2.08 2.93h58.53a4.37 4.37 0 0 0 4.12-2.93ZM69.81 31.34a4.36 4.36 0 0 1-4.12 2.93H7.16a2.2 2.2 0 0 1-2.08-2.93L13 11.87a4.35 4.35 0 0 1 4.11-2.93h58.55a2.2 2.2 0 0 1 2.08 2.93ZM150 11.87a2.2 2.2 0 0 0-2.08-2.93H89.35a4.37 4.37 0 0 0-4.12 2.93l-7.92 19.47a2.2 2.2 0 0 0 2.08 2.93h58.53a4.37 4.37 0 0 0 4.08-2.93Zm72.23 0a2.2 2.2 0 0 0-2.08-2.93h-58.57a4.37 4.37 0 0 0-4.12 2.93l-7.93 19.47a2.2 2.2 0 0 0 2.08 2.93h58.54a4.36 4.36 0 0 0 4.11-2.93Z" opacity=".41"/><path fill="#e0cec9" d="M366.64 12.27a2.2 2.2 0 0 0-2.08-2.93H306a4.37 4.37 0 0 0-4.12 2.93L294 31.74a2.21 2.21 0 0 0 2.08 2.93h58.52a4.37 4.37 0 0 0 4.12-2.93Zm-72.22 0a2.21 2.21 0 0 0-2.08-2.93H233.8a4.37 4.37 0 0 0-4.12 2.93l-7.92 19.47a2.2 2.2 0 0 0 2.08 2.93h58.53a4.37 4.37 0 0 0 4.12-2.93ZM69.81 31.74a4.36 4.36 0 0 1-4.12 2.93H7.16a2.2 2.2 0 0 1-2.08-2.93L13 12.27a4.35 4.35 0 0 1 4.11-2.93h58.55a2.2 2.2 0 0 1 2.08 2.93ZM150 12.27a2.2 2.2 0 0 0-2.08-2.93H89.35a4.37 4.37 0 0 0-4.12 2.93l-7.92 19.47a2.2 2.2 0 0 0 2.08 2.93h58.53a4.37 4.37 0 0 0 4.08-2.93Zm72.23 0a2.2 2.2 0 0 0-2.08-2.93h-58.57a4.37 4.37 0 0 0-4.12 2.93l-7.93 19.47a2.21 2.21 0 0 0 2.08 2.93h58.54a4.36 4.36 0 0 0 4.11-2.93Z" opacity=".35"/><path fill="#e5d6d2" d="M366.64 12.67a2.2 2.2 0 0 0-2.08-2.93H306a4.37 4.37 0 0 0-4.12 2.93L294 32.14a2.21 2.21 0 0 0 2.08 2.93h58.52a4.37 4.37 0 0 0 4.12-2.93Zm-72.22 0a2.21 2.21 0 0 0-2.08-2.93H233.8a4.37 4.37 0 0 0-4.12 2.93l-7.92 19.47a2.2 2.2 0 0 0 2.08 2.93h58.53a4.37 4.37 0 0 0 4.12-2.93ZM69.81 32.14a4.36 4.36 0 0 1-4.12 2.93H7.16a2.2 2.2 0 0 1-2.08-2.93L13 12.67a4.35 4.35 0 0 1 4.11-2.93h58.55a2.2 2.2 0 0 1 2.08 2.93ZM150 12.67a2.2 2.2 0 0 0-2.08-2.93H89.35a4.37 4.37 0 0 0-4.12 2.93l-7.92 19.47a2.2 2.2 0 0 0 2.08 2.93h58.53a4.37 4.37 0 0 0 4.08-2.93Zm72.23 0a2.2 2.2 0 0 0-2.08-2.93h-58.57a4.37 4.37 0 0 0-4.12 2.93l-7.93 19.47a2.2 2.2 0 0 0 2.08 2.93h58.54a4.36 4.36 0 0 0 4.11-2.93Z" opacity=".29"/><path fill="#ebdedb" d="M366.64 13.07a2.2 2.2 0 0 0-2.08-2.93H306a4.37 4.37 0 0 0-4.12 2.93L294 32.54a2.2 2.2 0 0 0 2.08 2.92h58.52a4.37 4.37 0 0 0 4.12-2.92Zm-72.22 0a2.21 2.21 0 0 0-2.08-2.93H233.8a4.37 4.37 0 0 0-4.12 2.93l-7.92 19.47a2.2 2.2 0 0 0 2.08 2.92h58.53a4.37 4.37 0 0 0 4.12-2.92ZM69.81 32.54a4.36 4.36 0 0 1-4.12 2.92H7.16a2.2 2.2 0 0 1-2.08-2.92L13 13.07a4.35 4.35 0 0 1 4.11-2.93h58.55a2.2 2.2 0 0 1 2.08 2.93ZM150 13.07a2.2 2.2 0 0 0-2.08-2.93H89.35a4.37 4.37 0 0 0-4.12 2.93l-7.92 19.47a2.2 2.2 0 0 0 2.08 2.92h58.53a4.37 4.37 0 0 0 4.08-2.92Zm72.23 0a2.2 2.2 0 0 0-2.08-2.93h-58.57a4.37 4.37 0 0 0-4.12 2.93l-7.93 19.47a2.2 2.2 0 0 0 2.08 2.92h58.54a4.35 4.35 0 0 0 4.11-2.92Z" opacity=".24"/><path fill="#f0e6e4" d="M366.64 13.46a2.2 2.2 0 0 0-2.08-2.92H306a4.37 4.37 0 0 0-4.12 2.92L294 32.94a2.2 2.2 0 0 0 2.08 2.92h58.52a4.37 4.37 0 0 0 4.12-2.92Zm-72.22 0a2.2 2.2 0 0 0-2.08-2.92H233.8a4.37 4.37 0 0 0-4.12 2.92l-7.92 19.48a2.2 2.2 0 0 0 2.08 2.92h58.53a4.37 4.37 0 0 0 4.12-2.92ZM69.81 32.94a4.36 4.36 0 0 1-4.12 2.92H7.16a2.2 2.2 0 0 1-2.08-2.92L13 13.46a4.34 4.34 0 0 1 4.11-2.92h58.55a2.2 2.2 0 0 1 2.08 2.92ZM150 13.46a2.2 2.2 0 0 0-2.08-2.92H89.35a4.37 4.37 0 0 0-4.12 2.92l-7.92 19.48a2.2 2.2 0 0 0 2.08 2.92h58.53a4.37 4.37 0 0 0 4.08-2.92Zm72.23 0a2.2 2.2 0 0 0-2.08-2.92h-58.57a4.37 4.37 0 0 0-4.12 2.92l-7.93 19.48a2.2 2.2 0 0 0 2.08 2.92h58.54a4.35 4.35 0 0 0 4.11-2.92Z" opacity=".18"/><path fill="#f5efed" d="M366.64 13.86a2.2 2.2 0 0 0-2.08-2.93H306a4.37 4.37 0 0 0-4.12 2.93L294 33.33a2.21 2.21 0 0 0 2.08 2.93h58.52a4.37 4.37 0 0 0 4.12-2.93Zm-72.22 0a2.21 2.21 0 0 0-2.08-2.93H233.8a4.37 4.37 0 0 0-4.12 2.93l-7.92 19.47a2.2 2.2 0 0 0 2.08 2.93h58.53a4.37 4.37 0 0 0 4.12-2.93ZM69.81 33.33a4.36 4.36 0 0 1-4.12 2.93H7.16a2.2 2.2 0 0 1-2.08-2.93L13 13.86a4.35 4.35 0 0 1 4.11-2.93h58.55a2.2 2.2 0 0 1 2.08 2.93ZM150 13.86a2.2 2.2 0 0 0-2.08-2.93H89.35a4.37 4.37 0 0 0-4.12 2.93l-7.92 19.47a2.2 2.2 0 0 0 2.08 2.93h58.53a4.37 4.37 0 0 0 4.08-2.93Zm72.23 0a2.2 2.2 0 0 0-2.08-2.93h-58.57a4.37 4.37 0 0 0-4.12 2.93l-7.93 19.47a2.2 2.2 0 0 0 2.08 2.93h58.54a4.36 4.36 0 0 0 4.11-2.93Z" opacity=".12"/><path fill="#faf7f6" d="M366.64 14.26a2.2 2.2 0 0 0-2.08-2.93H306a4.37 4.37 0 0 0-4.12 2.93L294 33.73a2.21 2.21 0 0 0 2.08 2.93h58.52a4.37 4.37 0 0 0 4.12-2.93Zm-72.22 0a2.21 2.21 0 0 0-2.08-2.93H233.8a4.37 4.37 0 0 0-4.12 2.93l-7.92 19.47a2.2 2.2 0 0 0 2.08 2.93h58.53a4.37 4.37 0 0 0 4.12-2.93ZM69.81 33.73a4.36 4.36 0 0 1-4.12 2.93H7.16a2.2 2.2 0 0 1-2.08-2.93L13 14.26a4.35 4.35 0 0 1 4.11-2.93h58.55a2.2 2.2 0 0 1 2.08 2.93ZM150 14.26a2.2 2.2 0 0 0-2.08-2.93H89.35a4.37 4.37 0 0 0-4.12 2.93l-7.92 19.47a2.2 2.2 0 0 0 2.08 2.93h58.53a4.37 4.37 0 0 0 4.08-2.93Zm72.23 0a2.2 2.2 0 0 0-2.08-2.93h-58.57a4.37 4.37 0 0 0-4.12 2.93l-7.93 19.47a2.2 2.2 0 0 0 2.08 2.93h58.54a4.36 4.36 0 0 0 4.11-2.93Z" opacity=".06"/></g></g><g id="Layer_8" data-name="Layer 8"><path d="M33.63 26.35a5.63 5.63 0 0 1-3.29-.9 4.85 4.85 0 0 1-1.83-2.51 8.09 8.09 0 0 1-.24-3.73 11.56 11.56 0 0 1 .9-3.24 8.59 8.59 0 0 1 1.74-2.55 7.67 7.67 0 0 1 2.41-1.67 7.2 7.2 0 0 1 3-.6 5.6 5.6 0 0 1 3.28.9 4.82 4.82 0 0 1 1.81 2.51 8.23 8.23 0 0 1 .25 3.73 11.48 11.48 0 0 1-.91 3.24A8.92 8.92 0 0 1 39 24.09a7.53 7.53 0 0 1-2.41 1.66 7.26 7.26 0 0 1-2.96.6Zm.48-2.83a3.21 3.21 0 0 0 1.51-.37 4 4 0 0 0 1.28-1 6.09 6.09 0 0 0 1-1.62 7.36 7.36 0 0 0 .51-2.09 5.81 5.81 0 0 0 0-2.34 2.91 2.91 0 0 0-.91-1.51 2.49 2.49 0 0 0-1.73-.59 3.25 3.25 0 0 0-1.49.37 4.23 4.23 0 0 0-1.29 1A6 6 0 0 0 32 17a7.71 7.71 0 0 0-.52 2.09 6 6 0 0 0 .08 2.34 2.83 2.83 0 0 0 .93 1.57 2.44 2.44 0 0 0 1.62.52ZM51.37 18.81a3.36 3.36 0 0 1-1.76-.44 2.67 2.67 0 0 1-1.13-1.26 3.59 3.59 0 0 1-.22-1.95 4.45 4.45 0 0 1 .79-2.11 4.63 4.63 0 0 1 1.59-1.4 4.3 4.3 0 0 1 2-.5 3.48 3.48 0 0 1 1.78.44 2.74 2.74 0 0 1 1.11 1.26 3.53 3.53 0 0 1 .2 2 4.63 4.63 0 0 1-.73 2.07 4.27 4.27 0 0 1-3.61 1.89ZM49.5 26.1l10.77-14.7h3l-10.7 14.7Zm2.21-9.39a1.23 1.23 0 0 0 .75-.23 1.7 1.7 0 0 0 .57-.64 2.57 2.57 0 0 0 .29-1 1.7 1.7 0 0 0-.18-1.21.91.91 0 0 0-.82-.41 1.34 1.34 0 0 0-.75.22 1.81 1.81 0 0 0-.58.64 2.72 2.72 0 0 0-.29 1 1.51 1.51 0 0 0 .17 1.18.94.94 0 0 0 .84.45Zm8.52 9.64a3.36 3.36 0 0 1-1.76-.44 2.67 2.67 0 0 1-1.13-1.26 3.7 3.7 0 0 1-.22-1.95 4.8 4.8 0 0 1 .8-2.11 4.51 4.51 0 0 1 1.58-1.4 4.32 4.32 0 0 1 2-.5 3.52 3.52 0 0 1 1.79.44 2.65 2.65 0 0 1 1.11 1.25 3.54 3.54 0 0 1 .19 2 4.66 4.66 0 0 1-.77 2.11 4.22 4.22 0 0 1-1.56 1.41 4.38 4.38 0 0 1-2.03.45Zm.34-2.12a1.3 1.3 0 0 0 .75-.22 1.75 1.75 0 0 0 .57-.63 2.57 2.57 0 0 0 .3-1A1.65 1.65 0 0 0 62 21.2a1 1 0 0 0-.85-.41 1.32 1.32 0 0 0-.73.22 1.75 1.75 0 0 0-.57.63 2.74 2.74 0 0 0-.32 1 1.65 1.65 0 0 0 .18 1.19.94.94 0 0 0 .86.4Z" class="cls-25"/></g></g></svg>