<svg xmlns="http://www.w3.org/2000/svg" xml:space="preserve" overflow="visible" viewBox="0 0 392 504"><path d="M196 0C87.9 0 0 87.9 0 196c0 52.5 31.8 119.9 94.5 200.4 28.7 36.8 59.9 71.6 93.2 104.3 4.6 4.4 11.9 4.4 16.6 0 33.3-32.7 64.4-67.5 93.2-104.3C360.2 315.9 392 248.5 392 196 392 87.9 304.1 0 196 0zm0 336c-77.2 0-140-62.8-140-140S118.8 56 196 56s140 62.8 140 140-62.8 140-140 140z"/><path d="m292.1 179.1-88-80c-4.6-4.2-11.6-4.2-16.1 0l-88 80c-4.2 3.8-5.2 10.1-2.2 15 2.3 3.7 6.3 5.9 10.7 5.8H120v76c0 6.6 5.4 12 12 12h28c6.6 0 12-5.4 12-12v-44c0-6.6 5.4-12 12-12h24c6.6 0 12 5.4 12 12v44c0 6.6 5.4 12 12 12h28c6.6 0 12-5.4 12-12v-76h11.6c4.3.1 8.4-2.2 10.7-5.8 2.9-4.8 2-11.1-2.2-15z"/></svg>