<svg xmlns="http://www.w3.org/2000/svg" version="1.1" xmlns:xlink="http://www.w3.org/1999/xlink" width="512" height="512" x="0" y="0" viewBox="0 0 110 110" style="enable-background:new 0 0 512 512" xml:space="preserve" class=""><g><g data-name="19. Login"><path fill="#000000" d="M105 55a50 50 0 0 1-21 40.73C57.62 83.42 25 95 25 95a50 50 0 1 1 80-40z" opacity="0.10196078431372549" data-original="#e7efff" class=""></path><circle cx="4" cy="16" r="3" fill="#bce566" opacity="1" data-original="#00c99f" class=""></circle><circle cx="96.91" cy="4" r="3" fill="#ffa100" opacity="1" data-original="#ffa100" class=""></circle><circle cx="106" cy="93" r="3" fill="#bce566" opacity="1" data-original="#00c99f" class=""></circle><circle cx="8" cy="106" r="3" fill="#ffa100" opacity="1" data-original="#ff4d69" class=""></circle><path fill="#3a3a3a" d="M91 33v56.68a50.5 50.5 0 0 1-7 6C52.51 81 25 95 25 95a48.79 48.79 0 0 1-6-5.31V33a15 15 0 0 1 15-15h42a15 15 0 0 1 15 15z" opacity="1" data-original="#4e6aff" class=""></path><path fill="#445760" d="M84 32v63.73A50 50 0 0 1 25 95V32a8 8 0 0 1 8-8h43a8 8 0 0 1 8 8z" opacity="1" data-original="#ffffff" class=""></path><path fill="#3a3a3a" d="M65.88 33H44.12a4 4 0 0 1-3.88-3L38 21h34l-2.24 9a4 4 0 0 1-3.88 3z" opacity="1" data-original="#4e6aff" class=""></path><path fill="#2a2a2a" d="M56 28H46a2 2 0 0 1 0-4h10a2 2 0 0 1 0 4z" opacity="1" data-original="#323fd4" class=""></path><circle cx="64" cy="26" r="2" fill="#2a2a2a" opacity="1" data-original="#323fd4" class=""></circle><path fill="#2a2a2a" d="M17 41h2v8h-2a2 2 0 0 1-2-2v-4a2 2 0 0 1 2-2zM17 53h2v10h-2a2 2 0 0 1-2-2v-6a2 2 0 0 1 2-2z" opacity="1" data-original="#323fd4" class=""></path><circle cx="91" cy="28" r="15" fill="#bce566" opacity="1" data-original="#00c99f" class=""></circle><path fill="#445760" d="m87.59 33.91-5-5a2 2 0 0 1 2.82-2.82L89 29.67l7.59-7.58a2 2 0 0 1 2.82 2.82l-9 9a2 2 0 0 1-2.82 0z" opacity="1" data-original="#ffffff" class=""></path><path fill="#3a3a3a" d="M64 60a3 3 0 0 1-3-3v-6a6 6 0 0 0-12 0v6a3 3 0 0 1-6 0v-6a12 12 0 0 1 24 0v6a3 3 0 0 1-3 3z" opacity="1" data-original="#4e6aff" class=""></path><rect width="34" height="28" x="38" y="55" fill="#ffa100" rx="5" opacity="1" data-original="#ffa100" class=""></rect><path fill="#445760" d="M55 74a2 2 0 0 1-2-2v-7a2 2 0 0 1 4 0v7a2 2 0 0 1-2 2z" opacity="1" data-original="#ffffff" class=""></path><path fill="#3a3a3a" d="M68 98H42a5 5 0 0 1 0-10h26a5 5 0 0 1 0 10z" opacity="1" data-original="#4e6aff" class=""></path><g fill="#fff"><circle cx="43" cy="93" r="2" fill="#445760" opacity="1" data-original="#ffffff" class=""></circle><circle cx="51" cy="93" r="2" fill="#445760" opacity="1" data-original="#ffffff" class=""></circle><circle cx="59" cy="93" r="2" fill="#445760" opacity="1" data-original="#ffffff" class=""></circle><circle cx="67" cy="93" r="2" fill="#445760" opacity="1" data-original="#ffffff" class=""></circle></g></g></g></svg>