<svg xmlns="http://www.w3.org/2000/svg" version="1.1" xmlns:xlink="http://www.w3.org/1999/xlink" width="512" height="512" x="0" y="0" viewBox="0 0 64 64" style="enable-background:new 0 0 512 512" xml:space="preserve" class=""><g><path fill="#37474f" d="M26 4c-7.18 0-13 5.82-13 13v15h26V17c0-7.18-5.82-13-13-13zm7 25H19V17a7 7 0 1 1 14 0z" opacity="1" data-original="#37474f"></path><rect width="44" height="36" x="4" y="24" fill="#ffb300" rx="4" opacity="1" data-original="#ffb300" class=""></rect><rect width="47" height="16" x="13" y="36" fill="#bce566" rx="3" opacity="1" data-original="#1976d2" class=""></rect><g fill="#eceff1"><path d="M24.964 42a1 1 0 0 0-1.366-.366l-1.098.634V41a1 1 0 1 0-2 0v1.268l-1.098-.634a1 1 0 1 0-1 1.732L19.5 44l-1.098.634a1 1 0 1 0 1 1.732l1.098-.634V47a1 1 0 1 0 2 0v-1.268l1.098.634a1 1 0 1 0 1-1.732L23.5 44l1.098-.634A1 1 0 0 0 24.964 42zM34.964 42a1 1 0 0 0-1.366-.366l-1.098.634V41a1 1 0 1 0-2 0v1.268l-1.098-.634a1 1 0 1 0-1 1.732L29.5 44l-1.098.634a1 1 0 1 0 1 1.732l1.098-.634V47a1 1 0 1 0 2 0v-1.268l1.098.634a1 1 0 1 0 1-1.732L33.5 44l1.098-.634A1 1 0 0 0 34.964 42zM44.964 42a1 1 0 0 0-1.366-.366l-1.098.634V41a1 1 0 1 0-2 0v1.268l-1.098-.634a1 1 0 1 0-1 1.732L39.5 44l-1.098.634a1 1 0 1 0 1 1.732l1.098-.634V47a1 1 0 1 0 2 0v-1.268l1.098.634a1 1 0 1 0 1-1.732L43.5 44l1.098-.634A1 1 0 0 0 44.964 42zM54.598 44.634 53.5 44l1.098-.634a1 1 0 1 0-1-1.732l-1.098.634V41a1 1 0 1 0-2 0v1.268l-1.098-.634a1 1 0 1 0-1 1.732L49.5 44l-1.098.634a1 1 0 1 0 1 1.732l1.098-.634V47a1 1 0 1 0 2 0v-1.268l1.098.634a1 1 0 1 0 1-1.732z" fill="#eceff1" opacity="1" data-original="#eceff1"></path></g></g></svg>