<svg xmlns="http://www.w3.org/2000/svg" id="Calque_1" data-name="Calque 1" viewBox="0 0 229.07 56.38"><defs/><g class="cls-1"><g class="cls-1"><path d="M0 55.75V16.66c0-5.44 4.25-9.69 9.76-9.69h19.51c7.94 0 14.5 6.48 14.5 14.43s-6.41 14.42-14.43 14.42h-2.51c-.98 0-1.6.63-1.6 1.39 0 .49.14.91.49 1.25l19.23 17.28H30.39L19.24 45.7c-3-2.72-4.32-5.99-4.32-8.99 0-5.64 4.53-10.66 11.78-10.66h2.65c2.65 0 4.67-2.02 4.67-4.67s-2.09-4.67-4.74-4.67H9.76v39.02H0Z" class="cls-2"/></g><g class="cls-1"><path d="M77.29 13.94c7.46 0 13.59 6.06 13.59 13.59v18.82c0 5.23-4.18 9.41-9.48 9.41H64.81c-7.32 0-13.03-5.71-13.03-13.03S57.56 29.7 64.81 29.7h16.31v-2.16c0-2.16-1.74-3.83-3.83-3.83H57.08v-9.76h20.21Zm2.79 32.05c.63 0 1.05-.42 1.05-1.05v-6.2H64.82c-2.09 0-3.62 1.6-3.62 3.62 0 2.16 1.39 3.62 3.62 3.62h15.26ZM130.11 0h9.76v42.93c0 2.23-.35 3.97-1.81 5.64-4.04 4.67-9.97 7.8-16.59 7.8-11.85 0-21.6-9.83-21.6-21.6s9.76-21.6 21.6-21.6c3.07 0 5.99.63 8.64 1.81V0Zm0 42.23V26.76c-2.3-2.51-5.37-3.83-8.64-3.83-6.41 0-11.85 5.44-11.85 11.85s5.44 11.85 11.85 11.85c3.34 0 6.41-1.39 8.15-3.28.42-.42.49-.7.49-1.12ZM175.83 13.94c7.46 0 13.59 6.06 13.59 13.59v18.82c0 5.23-4.18 9.41-9.48 9.41h-16.59c-7.32 0-13.03-5.71-13.03-13.03s5.78-13.03 13.03-13.03h16.31v-2.16c0-2.16-1.74-3.83-3.83-3.83h-20.21v-9.76h20.21Zm2.79 32.05c.63 0 1.05-.42 1.05-1.05v-6.2h-16.31c-2.09 0-3.62 1.6-3.62 3.62 0 2.16 1.39 3.62 3.62 3.62h15.26ZM199.8 55.75V26.62c0-2.23.42-3.97 1.81-5.64 3.97-4.74 9.97-7.81 16.59-7.81 3.97 0 7.67 1.12 10.87 3l-4.88 8.43c-1.95-1.18-3.83-1.67-5.99-1.67-3.14 0-6.13 1.25-8.29 3.48-.28.28-.35.56-.35.98v28.36h-9.76Z" class="cls-2"/></g></g></svg>