<svg xmlns="http://www.w3.org/2000/svg" version="1.1" xmlns:xlink="http://www.w3.org/1999/xlink" width="512" height="512" x="0" y="0" viewBox="0 0 60 60" style="enable-background:new 0 0 512 512" xml:space="preserve" class=""><g><path fill="#90cf4a" d="M13.04 13.04a23.832 23.832 0 0 0-7.03 15.98 1.012 1.012 0 0 1-1 .98h-3A1 1 0 0 1 1 28.98 28.866 28.866 0 0 1 9.49 9.49L12 11z" opacity="1" data-original="#90cf4a" class=""></path><path fill="#fccb55" d="m30 1 2 2-2 3a23.888 23.888 0 0 0-16.96 7.04L9.49 9.49A28.907 28.907 0 0 1 30 1z" opacity="1" data-original="#fccb55" class=""></path><path fill="#f86e50" d="M50.51 9.49 50 12l-3.04 1.04A23.888 23.888 0 0 0 30 6V1a28.907 28.907 0 0 1 20.51 8.49z" opacity="1" data-original="#f86e50"></path><path fill="#d92936" d="M59 28.98A1 1 0 0 1 57.99 30h-3a1.012 1.012 0 0 1-1-.98 23.832 23.832 0 0 0-7.03-15.98l3.55-3.55A28.866 28.866 0 0 1 59 28.98z" opacity="1" data-original="#d92936"></path><path fill="#ccd0da" d="M27.707 25.627 8.09 20.03a.8.8 0 0 0-.6 1.47l17.671 9.509z" opacity="1" data-original="#ccd0da" class=""></path><path fill="#b9bfcc" d="M32.15 34.51a5 5 0 1 0-4.3 0z" opacity="1" data-original="#b9bfcc"></path><path fill="#f28f02" d="M47.848 57.646 30.7 32.375a.846.846 0 0 0-1.406 0L12.152 57.646a.865.865 0 0 0 .7 1.354h34.29a.865.865 0 0 0 .706-1.354z" opacity="1" data-original="#f28f02"></path><g fill="#ba7017"><path d="M30 51a1 1 0 0 1-1-1V39a1 1 0 0 1 2 0v11a1 1 0 0 1-1 1zM30 56a1 1 0 0 1-1-1v-1a1 1 0 0 1 2 0v1a1 1 0 0 1-1 1z" fill="#ba7017" opacity="1" data-original="#ba7017"></path></g></g></svg>