<svg xmlns="http://www.w3.org/2000/svg" xml:space="preserve" viewBox="0 0 512 512"><path d="M309.3 224.6c0-29.4-23.9-53.3-53.3-53.3s-53.3 23.9-53.3 53.3 23.9 53.3 53.3 53.3 53.3-23.9 53.3-53.3z" data-original="#000000"/><path d="M374.1 108.9c-31.5-32.9-73.4-51-118.1-51-44.6 0-86.6 18.1-118.1 51l-.1.1c-31.3 32.7-48.5 76.1-48.5 122.2 0 46.2 17.3 89.6 48.6 122.3l107.3 111.9c2.8 3 6.7 4.6 10.8 4.6s8-1.7 10.8-4.6l107.3-111.9c31.3-32.7 48.6-76.1 48.6-122.3s-17.3-89.6-48.6-122.3zM172.7 224.6c0-45.9 37.4-83.3 83.3-83.3s83.3 37.4 83.3 83.3-37.4 83.3-83.3 83.3-83.3-37.4-83.3-83.3z" data-original="#000000"/></svg>