<svg xmlns="http://www.w3.org/2000/svg" xml:space="preserve" viewBox="0 0 682.667 682.667"><defs><clipPath id="b" clipPathUnits="userSpaceOnUse"><path d="M0 512h512V0H0Z" data-original="#000000"/></clipPath></defs><mask id="a"><rect width="100%" height="100%" fill="#fff" data-original="#ffffff"/><path fill="#fff" d="M630.665 522.667h-53.333v-53.333h53.333zm-522.665 0H54.667v-53.333H108zm206.666 160H368v-53.333h-53.334ZM577.333 576v53.333h-52v53.333h52c29.455 0 53.333-23.877 53.333-53.333V576ZM471.999 629.334h-53.333v53.333h53.333zm-261.333 0H264v53.333h-53.333zM368 362.668h-53.333V416h53.333zm104 0h-53.333V416h53.333zm-261.333 0H264V416h-53.333zM108 629.333V576H54.667v53.333c0 29.456 23.878 53.333 53.333 53.333h50.667v-53.333ZM577.333 256v106.666h-52V416h105.333V256ZM108 362.667V256.001H54.667v160h104v-53.334Z" data-original="#ffffff"/></mask><g mask="url(#a)"><path d="M630.665 522.667h-53.333v-53.333h53.333zm-522.665 0H54.667v-53.333H108zm206.666 160H368v-53.333h-53.334Z" data-original="#000000"/><g clip-path="url(#b)" transform="matrix(1.33333 0 0 -1.33333 0 682.667)"><path d="M433 80V40h-39V0h39c22.091 0 40 17.908 40 40v40ZM354 40h-40V0h40zm-196 0h40V0h-40zm118 200h-40v-40h40zm78 0h-40v-40h40zm-196 0h40v-40h-40zM81 40v40H41V40C41 17.908 58.909 0 81 0h38v40ZM433 320v-80h-39v-40h79v120ZM81 240v80H41V200h78v40Z" data-original="#000000"/><path fill="none" stroke="#000" stroke-linecap="square" stroke-miterlimit="10" stroke-width="40" d="M485 297 257 486 29 297" data-original="#000000"/></g></g></svg>