<svg xmlns="http://www.w3.org/2000/svg" version="1.1" xmlns:xlink="http://www.w3.org/1999/xlink" width="512" height="512" x="0" y="0" viewBox="0 0 1000 1000" style="enable-background:new 0 0 512 512" xml:space="preserve" class=""><g><rect width="411.22" height="308.45" x="294.39" y="275.2" fill="#fbc02d" rx="59.44" opacity="1" data-original="#fbc02d" class=""></rect><path fill="#bdbdbd" d="M365.43 275.2v-89.07c0-21.5 6.93-42.06 19.52-57.89 14.26-18 34.73-28.24 56.17-28.24h117.76c21.46 0 41.94 10.29 56.19 28.22 12.58 15.82 19.51 36.38 19.51 57.91v89.07h-70.46v-89.07a2.26 2.26 0 0 0 0-.26 15.61 15.61 0 0 0-15.65-15.41h-96.93a15.62 15.62 0 0 0-15.65 15.41v89.33z" opacity="1" data-original="#bdbdbd" class=""></path><path fill="#3a3a3a" d="M548.4 389a48.4 48.4 0 1 0-77.11 39 20.45 20.45 0 0 1 8.21 16.47v52.89c0 11.17 8.76 20.62 19.92 20.92a20.5 20.5 0 0 0 21.08-20.49v-53.36a20.39 20.39 0 0 1 8.17-16.43 48.3 48.3 0 0 0 19.73-39z" opacity="1" data-original="#424242" class=""></path><path fill="#bce566" d="M254.82 900a115.62 115.62 0 0 1 0-231.23h490.36a115.62 115.62 0 0 1 0 231.23z" opacity="1" data-original="#42a5f5" class=""></path><g fill="#e53935"><path d="M794.58 822.09a15 15 0 0 1-10.61-4.4l-45.4-45.4a15 15 0 1 1 21.21-21.21l45.41 45.4a15 15 0 0 1-10.61 25.61z" fill="#3a3a3a" opacity="1" data-original="#e53935" class=""></path><path d="M749.18 822.09a15 15 0 0 1-10.61-25.61l45.4-45.4a15 15 0 1 1 21.22 21.21l-45.41 45.4a14.94 14.94 0 0 1-10.6 4.4zM658.64 822.09a15 15 0 0 1-10.61-4.4l-45.4-45.4a15 15 0 1 1 21.21-21.21l45.41 45.4a15 15 0 0 1-10.61 25.61z" fill="#3a3a3a" opacity="1" data-original="#e53935" class=""></path><path d="M613.24 822.09a15 15 0 0 1-10.61-25.61l45.4-45.4a15 15 0 1 1 21.22 21.21l-45.41 45.4a14.92 14.92 0 0 1-10.6 4.4zM522.7 822.09a15 15 0 0 1-10.61-4.4l-45.4-45.4a15 15 0 1 1 21.22-21.21l45.4 45.4a15 15 0 0 1-10.61 25.61z" fill="#3a3a3a" opacity="1" data-original="#e53935" class=""></path><path d="M477.3 822.09a15 15 0 0 1-10.61-25.61l45.4-45.4a15 15 0 1 1 21.22 21.21l-45.4 45.4a15 15 0 0 1-10.61 4.4zM386.76 822.09a14.92 14.92 0 0 1-10.6-4.4l-45.41-45.4A15 15 0 1 1 352 751.08l45.4 45.4a15 15 0 0 1-10.61 25.61z" fill="#3a3a3a" opacity="1" data-original="#e53935" class=""></path><path d="M341.36 822.09a15 15 0 0 1-10.61-25.61l45.41-45.4a15 15 0 1 1 21.21 21.21L352 817.69a15 15 0 0 1-10.64 4.4zM250.82 822.09a14.94 14.94 0 0 1-10.6-4.4l-45.41-45.4A15 15 0 1 1 216 751.08l45.4 45.4a15 15 0 0 1-10.61 25.61z" fill="#3a3a3a" opacity="1" data-original="#e53935" class=""></path><path d="M205.42 822.09a15 15 0 0 1-10.61-25.61l45.41-45.4a15 15 0 1 1 21.21 21.21L216 817.69a15 15 0 0 1-10.58 4.4z" fill="#3a3a3a" opacity="1" data-original="#e53935" class=""></path></g></g></svg><svg xmlns="http://www.w3.org/2000/svg" width="400" height="400" viewBox="0 0 124 124" fill="none">
<rect width="124" height="124" rx="24" fill="#F97316"/>
<path d="M19.375 36.7818V100.625C19.375 102.834 21.1659 104.625 23.375 104.625H87.2181C90.7818 104.625 92.5664 100.316 90.0466 97.7966L26.2034 33.9534C23.6836 31.4336 19.375 33.2182 19.375 36.7818Z" fill="white"/>
<circle cx="63.2109" cy="37.5391" r="18.1641" fill="black"/>
<rect opacity="0.4" x="81.1328" y="80.7198" width="17.5687" height="17.3876" rx="4" transform="rotate(-45 81.1328 80.7198)" fill="#FDBA74"/>
</svg>