<svg xmlns="http://www.w3.org/2000/svg" version="1.1" xmlns:xlink="http://www.w3.org/1999/xlink" width="512" height="512" x="0" y="0" viewBox="0 0 512 512" style="enable-background:new 0 0 512 512" xml:space="preserve" class=""><g><g fill-rule="evenodd"><path fill="#3a3a3a" d="M152.037 372.282v74.299h33.201v15.998h-41.2a7.995 7.995 0 0 1-7.999-7.999v-82.298z" opacity="1" data-original="#3a4186" class=""></path><path fill="#bce566" d="M471.515 457.491c3.807 2.207 5.108 7.098 2.891 10.909-2.217 3.807-7.084 5.118-10.89 2.911l-5.012-2.901v5.812c0 4.419-3.566 7.999-7.999 7.999s-7.999-3.58-7.999-7.999v-5.812l-5.011 2.901c-3.807 2.207-8.722.896-10.938-2.911-2.168-3.811-.916-8.702 2.939-10.909l5.06-2.91-5.06-2.92c-3.855-2.212-5.108-7.103-2.939-10.909 2.216-3.812 7.131-5.113 10.938-2.911l5.011 2.901v-5.811c0-4.419 3.566-7.999 7.999-7.999s7.999 3.58 7.999 7.999v5.811l5.012-2.901c3.807-2.202 8.674-.901 10.89 2.911 2.217 3.807.916 8.697-2.891 10.909l-5.059 2.92zm-67.992 0c3.807 2.207 5.108 7.098 2.891 10.909-2.168 3.807-7.084 5.118-10.89 2.911l-5.012-2.901v5.812c0 4.419-3.566 7.999-7.999 7.999s-7.999-3.58-7.999-7.999v-5.812l-5.011 2.901c-3.807 2.207-8.722.896-10.939-2.911-2.168-3.811-.867-8.702 2.94-10.909l5.059-2.91-5.059-2.92c-3.807-2.212-5.108-7.103-2.94-10.909 2.217-3.812 7.132-5.113 10.939-2.911l5.011 2.901v-5.811c0-4.419 3.566-7.999 7.999-7.999s7.999 3.58 7.999 7.999v5.811l5.012-2.901c3.807-2.202 8.722-.901 10.89 2.911 2.216 3.807.916 8.697-2.891 10.909l-5.06 2.92zm-67.992 0c3.807 2.207 5.108 7.098 2.891 10.909-2.168 3.807-7.084 5.118-10.89 2.911l-5.011-2.901v5.812c0 4.419-3.566 7.999-7.999 7.999s-7.999-3.58-7.999-7.999v-5.812l-5.011 2.901c-3.807 2.207-8.674.896-10.89-2.911-2.216-3.811-.916-8.702 2.891-10.909l5.059-2.91-5.059-2.92c-3.807-2.212-5.108-7.103-2.891-10.909 2.217-3.812 7.084-5.113 10.89-2.911l5.011 2.901v-5.811c0-4.419 3.566-7.999 7.999-7.999s7.999 3.58 7.999 7.999v5.811l5.011-2.901c3.807-2.202 8.722-.901 10.89 2.911 2.216 3.807.915 8.697-2.891 10.909l-5.06 2.92zm-67.992 0c3.855 2.207 5.156 7.098 2.939 10.909-2.216 3.807-7.083 5.118-10.938 2.911l-5.011-2.901v5.812a7.988 7.988 0 0 1-7.999 7.999c-4.385 0-7.999-3.58-7.999-7.999v-5.812l-5.012 2.901c-3.807 2.207-8.673.896-10.89-2.911-2.217-3.811-.916-8.702 2.891-10.909l5.06-2.91-5.06-2.92c-3.807-2.212-5.108-7.103-2.891-10.909 2.217-3.812 7.084-5.113 10.89-2.911l5.012 2.901v-5.811c0-4.419 3.614-7.999 7.999-7.999a7.988 7.988 0 0 1 7.999 7.999v5.811l5.011-2.901c3.855-2.202 8.722-.901 10.938 2.911 2.217 3.807.916 8.697-2.939 10.909l-5.011 2.92zm187.736-48.673H241.759c-25.154 0-45.729 20.59-45.729 45.763 0 25.158 20.576 45.748 45.729 45.748h213.516c25.154 0 45.729-20.59 45.729-45.748 0-25.173-20.576-45.763-45.729-45.763z" opacity="1" data-original="#509be6" class=""></path><path fill="#3a3a3a" d="M444.483 273.181c-11.179 0-20.238-9.059-20.238-20.238s9.059-20.238 20.238-20.238 20.238 9.059 20.238 20.238-9.059 20.238-20.238 20.238zm-15.323-84.062c-25.78 0-47.994 15.299-58.065 37.321h-39.658l-5.975 5.305h-91.41l-15.082 21.197 15.082 21.197h16.528l11.565-17.598 11.517 17.598h3.662l11.565-17.598 11.517 17.598h25.057l5.975 5.31h39.658c10.071 22.021 32.285 37.321 58.065 37.321 35.273 0 63.848-28.585 63.848-63.828s-28.575-63.823-63.848-63.823z" opacity="1" data-original="#3a4186" class=""></path><path fill="#bce566" d="M194.2 145.611H93.827v-44.337c0-27.529 22.648-50.191 50.211-50.191S194.2 73.745 194.2 101.274zm-36.622 105.895v44.332c0 7.45-6.12 13.541-13.54 13.541-7.469 0-13.541-6.091-13.541-13.541v-44.332c-9.3-4.881-15.661-14.615-15.661-25.833 0-16.109 13.059-29.167 29.201-29.167s29.153 13.059 29.153 29.167c0 11.218-6.361 20.952-15.613 25.833zm65.823-32.478c1.542-2.173 3.807-3.354 6.505-3.354h47.127v-45.565c0-13.473-11.035-24.498-24.527-24.498h-18.889v-44.337c0-49.28-40.332-89.603-89.579-89.603s-89.627 40.323-89.627 89.604v44.337H35.522c-13.492 0-24.527 11.025-24.527 24.498v165.671c0 13.468 11.035 24.498 24.527 24.498h216.985c13.492 0 24.527-11.03 24.527-24.498V290.22h-12.047l-2.843-4.37-2.891 4.37h-29.346c-2.65 0-4.963-1.19-6.505-3.359l-20.865-29.273c-2.024-2.828-2.024-6.457 0-9.285l20.865-29.274z" opacity="1" data-original="#509be6" class=""></path></g></g></svg>