<svg xmlns="http://www.w3.org/2000/svg" version="1.1" xmlns:xlink="http://www.w3.org/1999/xlink" width="512" height="512" x="0" y="0" viewBox="0 0 512 512" style="enable-background:new 0 0 512 512" xml:space="preserve" class=""><g><path fill="#eaf6ff" d="M122.964 107.893H0v167.344c0 8.534 6.918 15.453 15.453 15.453h107.511z" opacity="1" data-original="#eaf6ff" class=""></path><path fill="#d8ecfe" d="M92.166 244.668c0 8.534-6.918 15.453-15.453 15.453H0v15.116c0 8.534 6.918 15.453 15.453 15.453h107.511V107.893H92.166z" opacity="1" data-original="#d8ecfe"></path><path fill="#eaf6ff" d="M381.574 107.893V290.69h114.973c8.534 0 15.453-6.919 15.453-15.453V107.893z" opacity="1" data-original="#eaf6ff" class=""></path><path fill="#d8ecfe" d="M481.202 107.893v136.775c0 8.534-6.919 15.453-15.453 15.453h-84.175v30.569h114.973c8.534 0 15.453-6.919 15.453-15.453V107.893z" opacity="1" data-original="#d8ecfe"></path><path fill="#05e39c" d="M496.547 32.93H381.574v75.994H512V48.382c0-8.534-6.918-15.452-15.453-15.452z" opacity="1" data-original="#05e39c" class=""></path><path fill="#0ed290" d="M496.547 32.93h-15.345v35.338c0 5.69-4.612 10.302-10.302 10.302h-89.326v30.354H512V48.382c0-8.534-6.918-15.452-15.453-15.452z" opacity="1" data-original="#0ed290" class=""></path><path fill="#ffd15b" d="M122.964 32.93H15.453C6.918 32.93 0 39.848 0 48.382v60.541h122.964z" opacity="1" data-original="#ffd15b"></path><path fill="#ffc344" d="M92.166 68.268c0 5.69-4.612 10.302-10.302 10.302H0v30.354h122.964V32.93H92.166z" opacity="1" data-original="#ffc344" class=""></path><path fill="#60b7ff" d="M367.152 334.294H137.387c-8.534 0-15.453-6.918-15.453-15.453V20.089c0-8.534 6.918-15.453 15.453-15.453h229.766c8.534 0 15.453 6.918 15.453 15.453v298.753c-.001 8.533-6.92 15.452-15.454 15.452z" opacity="1" data-original="#60b7ff" class=""></path><path fill="#26a6fe" d="M367.152 4.636h-15.345v280.209c0 8.534-6.918 15.453-15.453 15.453h-214.42v18.543c0 8.534 6.918 15.453 15.453 15.453h229.766c8.534 0 15.453-6.919 15.453-15.453V20.089c-.001-8.535-6.92-15.453-15.454-15.453z" opacity="1" data-original="#26a6fe" class=""></path><circle cx="252.269" cy="118.562" r="60.778" fill="#ffffff" opacity="1" data-original="#ffffff"></circle><path fill="#f8f6f6" d="M263.103 58.766c12.093 11.109 19.677 27.049 19.677 44.765 0 33.567-27.211 60.778-60.778 60.778-3.7 0-7.316-.349-10.833-.982 10.821 9.94 25.25 16.013 41.101 16.013 33.567 0 60.778-27.211 60.778-60.778 0-29.867-21.55-54.684-49.945-59.796z" opacity="1" data-original="#f8f6f6"></path><path fill="#ffd15b" d="M311.697 277.466H192.842c-11.935 0-21.61-9.675-21.61-21.61 0-11.935 9.675-21.61 21.61-21.61h118.855c11.935 0 21.61 9.675 21.61 21.61 0 11.935-9.675 21.61-21.61 21.61z" opacity="1" data-original="#ffd15b"></path><path fill="#ffc344" d="M311.697 234.246h-2.828c0 .049.007.095.007.144 0 11.935-9.675 21.61-21.61 21.61H171.239c.078 11.868 9.717 21.466 21.603 21.466h118.855c11.935 0 21.61-9.675 21.61-21.61 0-11.935-9.675-21.61-21.61-21.61z" opacity="1" data-original="#ffc344" class=""></path><path fill="#ffd15b" d="M496.547 371.284H15.453C6.918 371.284 0 378.202 0 386.737v105.175c0 8.534 6.918 15.453 15.453 15.453h481.095c8.534 0 15.453-6.918 15.453-15.453V386.737c-.001-8.535-6.919-15.453-15.454-15.453z" opacity="1" data-original="#ffd15b"></path><path fill="#ffc344" d="M496.547 371.284H482.64v94.873c0 5.69-4.612 10.302-10.302 10.302H0v15.453c0 8.534 6.918 15.453 15.453 15.453h481.095c8.534 0 15.453-6.919 15.453-15.453V386.737c-.001-8.535-6.919-15.453-15.454-15.453z" opacity="1" data-original="#ffc344" class=""></path><path fill="#ffffff" d="M444.125 458.954h-72.952c-10.841 0-19.63-8.789-19.63-19.63s8.789-19.63 19.63-19.63h72.952c10.841 0 19.63 8.789 19.63 19.63s-8.788 19.63-19.63 19.63z" opacity="1" data-original="#ffffff"></path><path fill="#f8f6f6" d="M444.486 419.712c.02.359.055.714.055 1.078 0 10.841-8.789 19.63-19.63 19.63h-72.952c-.122 0-.239-.016-.361-.018.563 10.337 9.098 18.552 19.575 18.552h72.952c10.841 0 19.63-8.788 19.63-19.63 0-10.719-8.596-19.417-19.269-19.612z" opacity="1" data-original="#f8f6f6"></path><path fill="#60b7ff" d="M82.574 210.56H44.583c-4.143 0-7.5-3.357-7.5-7.5s3.357-7.5 7.5-7.5h37.991c4.143 0 7.5 3.357 7.5 7.5s-3.357 7.5-7.5 7.5zM82.574 246.616H44.583c-4.143 0-7.5-3.357-7.5-7.5s3.357-7.5 7.5-7.5h37.991c4.143 0 7.5 3.357 7.5 7.5s-3.357 7.5-7.5 7.5zM463.755 210.56h-37.991c-4.143 0-7.5-3.357-7.5-7.5s3.357-7.5 7.5-7.5h37.991c4.143 0 7.5 3.357 7.5 7.5s-3.358 7.5-7.5 7.5zM463.755 246.616h-37.991c-4.143 0-7.5-3.357-7.5-7.5s3.357-7.5 7.5-7.5h37.991c4.143 0 7.5 3.357 7.5 7.5s-3.358 7.5-7.5 7.5z" opacity="1" data-original="#60b7ff" class=""></path><path fill="#ffffff" d="M243.584 431.157H44.583c-4.143 0-7.5-3.357-7.5-7.5s3.357-7.5 7.5-7.5h199.001c4.143 0 7.5 3.357 7.5 7.5s-3.357 7.5-7.5 7.5zM243.584 462.491H44.583c-4.143 0-7.5-3.357-7.5-7.5s3.357-7.5 7.5-7.5h199.001c4.143 0 7.5 3.357 7.5 7.5s-3.357 7.5-7.5 7.5z" opacity="1" data-original="#ffffff"></path></g></svg>