<svg xmlns="http://www.w3.org/2000/svg" xml:space="preserve" viewBox="0 0 512 512"><path d="M424.68 151.038H87.32c-47.546 0-86.227 38.681-86.227 86.227V424.68c0 47.546 38.681 86.227 86.227 86.227h337.36c47.546 0 86.227-38.681 86.227-86.227V237.266c0-47.547-38.681-86.228-86.227-86.228zM256 450.929c-66.144 0-119.956-53.812-119.956-119.956S189.856 211.016 256 211.016s119.956 53.812 119.956 119.956S322.144 450.929 256 450.929z" data-original="#000000"/><path d="M256 241.005c-49.608 0-89.967 40.359-89.967 89.967S206.392 420.94 256 420.94s89.967-40.359 89.967-89.967-40.359-89.968-89.967-89.968zm51.088 64.583-50.981 50.981c-5.856 5.856-15.35 5.855-21.205 0l-29.989-29.989c-5.856-5.855-5.856-15.35 0-21.205 5.855-5.855 15.35-5.855 21.205 0l19.386 19.386 40.379-40.379c5.855-5.855 15.35-5.855 21.205 0 5.856 5.856 5.856 15.351 0 21.206zm72.607-259.511c11.515 0 22.64 1.692 33.15 4.825-13.755-29.39-43.598-49.808-78.134-49.808H177.288c-34.536 0-64.378 20.418-78.134 49.808a115.864 115.864 0 0 1 33.15-4.825zm44.985 74.972c11.514 0 22.639 1.691 33.149 4.824-13.755-29.39-43.598-49.808-78.133-49.808h-247.39c-34.536 0-64.378 20.418-78.133 49.808a115.861 115.861 0 0 1 33.149-4.824z" data-original="#000000"/></svg>