<svg xmlns="http://www.w3.org/2000/svg" version="1.1" xmlns:xlink="http://www.w3.org/1999/xlink" width="512" height="512" x="0" y="0" viewBox="0 0 1.707 1.707" style="enable-background:new 0 0 512 512" xml:space="preserve" fill-rule="evenodd" class=""><g><path fill="#f17480" d="M.717 1.707A.02.02 0 0 1 .7 1.696l-.09-.18-.163.111a.02.02 0 0 1-.03-.021l.14-.527a.02.02 0 0 1 .036-.007l.02.027.124-.003c.003 0 .007.001.01.003l.114.059a.02.02 0 0 1 .013.024l-.136.51a.02.02 0 0 1-.02.015z" opacity="1" data-original="#f17480"></path><path fill="#d5646c" d="m.545 1.121.012-.042a.02.02 0 0 1 .035-.007l.02.027.124-.003.01.002.114.06a.02.02 0 0 1 .013.024l-.01.04a.046.046 0 0 1-.031-.004l-.106-.055-.122.003a.047.047 0 0 1-.039-.019l-.02-.026z" opacity="1" data-original="#d5646c"></path><path fill="#ea6c75" d="M.99 1.707H.986a.02.02 0 0 1-.017-.015l-.136-.508a.02.02 0 0 1 0-.008.02.02 0 0 1 .01-.017h.002l.118-.061a.021.021 0 0 1 .01-.002l.12.003.02-.027a.02.02 0 0 1 .035.007l.141.524a.02.02 0 0 1-.018.028.02.02 0 0 1-.011-.004l-.162-.111-.092.18a.02.02 0 0 1-.018.01z" opacity="1" data-original="#ea6c75"></path><path fill="#d5646c" d="m.844 1.222-.01-.038a.02.02 0 0 1 0-.008.02.02 0 0 1 .01-.017h.002l.118-.061a.021.021 0 0 1 .01-.002l.12.003.02-.027a.02.02 0 0 1 .035.007l.012.042-.02.027a.047.047 0 0 1-.038.018l-.12-.003-.108.055a.047.047 0 0 1-.03.004z" opacity="1" data-original="#d5646c"></path><path fill="#fbeb7e" d="M.853 1.197a.02.02 0 0 1-.009-.003l-.112-.058-.13.003a.02.02 0 0 1-.016-.008l-.076-.1L.393.976A.02.02 0 0 1 .382.963L.357.839l-.083-.1A.02.02 0 0 1 .27.723L.302.6.27.475A.02.02 0 0 1 .274.457L.356.36.382.234A.02.02 0 0 1 .393.22L.508.168.586.065A.02.02 0 0 1 .603.057l.126.004.115-.059a.02.02 0 0 1 .019 0L.975.06l.129-.003a.02.02 0 0 1 .016.008l.076.101.118.054a.02.02 0 0 1 .011.014l.025.124.082.099a.02.02 0 0 1 .005.018l-.032.122.032.125a.02.02 0 0 1-.005.018l-.081.097-.026.126a.02.02 0 0 1-.011.014l-.116.052-.078.102a.021.021 0 0 1-.016.008l-.127-.003-.115.058a.02.02 0 0 1-.009.003z" opacity="1" data-original="#fbeb7e"></path><path fill="#f38f98" d="M.574 1.434a.02.02 0 0 1-.02-.025l.057-.212a.02.02 0 1 1 .039.01l-.057.212a.02.02 0 0 1-.02.015z" opacity="1" data-original="#f38f98"></path><path fill="#ee888f" d="M1.133 1.434a.02.02 0 0 1-.02-.015l-.056-.212a.02.02 0 1 1 .038-.01l.057.212a.02.02 0 0 1-.02.025z" opacity="1" data-original="#ee888f"></path><path fill="#febb50" d="M.853 1.051A.453.453 0 1 1 .854.145a.453.453 0 0 1 0 .906z" opacity="1" data-original="#febb50"></path><path fill="#fbeb7e" d="M.853.939A.34.34 0 1 1 .854.257a.34.34 0 0 1 0 .682z" opacity="1" data-original="#fbeb7e"></path><path fill="#febb50" d="M1.02.725H.684a.02.02 0 0 1-.02-.017L.646.601a.02.02 0 0 1 .02-.024A.019.019 0 0 0 .677.57a.02.02 0 0 1 .03-.004L.76.612.808.545A.02.02 0 0 1 .839.543a.02.02 0 0 0 .029 0 .02.02 0 0 1 .031.002l.048.067.052-.047a.02.02 0 0 1 .03.004.019.019 0 0 0 .014.008.02.02 0 0 1 .018.024l-.022.108a.02.02 0 0 1-.02.016z" opacity="1" data-original="#febb50"></path><g fill="#fea848"><path d="M.663.617a.059.059 0 1 1 0-.118.059.059 0 0 1 0 .118zM.854.59a.059.059 0 1 1 0-.118.059.059 0 0 1 0 .118zM1.044.617a.059.059 0 1 1 0-.118.059.059 0 0 1 0 .118z" fill="#fea848" opacity="1" data-original="#fea848"></path><path d="M.853.146a.453.453 0 0 0-.322.77.453.453 0 0 1 .671-.606.452.452 0 0 0-.349-.164z" fill="#fea848" opacity="1" data-original="#fea848"></path></g><path fill="#fbde71" d="M.853.258A.34.34 0 0 0 .614.84a.34.34 0 0 1 .504-.455.34.34 0 0 0-.265-.128z" opacity="1" data-original="#fbde71"></path></g></svg>