<svg xmlns="http://www.w3.org/2000/svg" xml:space="preserve" viewBox="0 0 24 24"><path d="M15 12a2.53 2.53 0 0 1-.12.8 3 3 0 0 1-5.78-.05A2.62 2.62 0 0 1 9 12a3 3 0 0 1 6 0zm7-1h-6.13a3.66 3.66 0 0 1 .13 1 4 4 0 0 1-.16 1.11A3.93 3.93 0 0 1 12 16a3.71 3.71 0 0 1-1-.13V22a1 1 0 0 0 1 1 10.76 10.76 0 0 0 11-11 1 1 0 0 0-1-1zM12 1A11 11 0 0 0 1 12v.55a11 11 0 0 0 9 10.26v-2a9 9 0 0 1-7-8.33v-.44a9 9 0 0 1 17.78-2h2A11 11 0 0 0 12 1zm0 4a7 7 0 0 0-2 13.71v-2.12A5 5 0 1 1 16.59 10h2.12A7 7 0 0 0 12 5z" data-name="29 Radar, Flight, Signal" data-original="#000000"/></svg>