<svg xmlns="http://www.w3.org/2000/svg" xml:space="preserve" viewBox="0 0 64 64"><path d="m57.617 38.129-3.035-1.752a23.138 23.138 0 0 0 .001-8.755l3.035-1.752a4.72 4.72 0 0 0 2.213-2.884 4.716 4.716 0 0 0-.475-3.604l-2.75-4.763a4.765 4.765 0 0 0-4.116-2.375c-.831 0-1.651.22-2.372.637l-3.041 1.755a23.047 23.047 0 0 0-7.576-4.382V6.75A4.757 4.757 0 0 0 34.75 2h-5.5a4.756 4.756 0 0 0-4.75 4.75v3.503a23.075 23.075 0 0 0-7.576 4.382l-3.041-1.755a4.747 4.747 0 0 0-6.489 1.738l-2.75 4.763a4.721 4.721 0 0 0-.475 3.604 4.72 4.72 0 0 0 2.213 2.884l3.035 1.752a23.156 23.156 0 0 0 0 8.756L6.382 38.13a4.755 4.755 0 0 0-1.737 6.488l2.75 4.763a4.766 4.766 0 0 0 4.117 2.375c.83 0 1.65-.22 2.371-.636l3.041-1.757a23.032 23.032 0 0 0 7.576 4.383v3.504A4.756 4.756 0 0 0 29.25 62h5.5a4.756 4.756 0 0 0 4.75-4.75v-3.504a23.032 23.032 0 0 0 7.576-4.383l3.041 1.757a4.753 4.753 0 0 0 2.372.636c1.693 0 3.271-.91 4.117-2.375l2.75-4.763a4.757 4.757 0 0 0-1.739-6.489zM32 42c-5.514 0-10-4.486-10-10s4.486-10 10-10 10 4.486 10 10-4.486 10-10 10z" data-original="#000000"/></svg>