<svg xmlns="http://www.w3.org/2000/svg" xml:space="preserve" viewBox="0 0 64 64"><g fill="#ff4d4d"><path d="M54 31h-2.046c-.291-5.6-3.09-10.888-7.403-14.438a20.032 20.032 0 0 0-7.436-3.868A19.043 19.043 0 0 0 33 12.047c-.221-.215 0-1.7 0-2.047 0-1.141-1.776-1.326-1.982-.203-.131.715-.018 1.528-.018 2.253-5.635.306-10.973 3.092-14.527 7.46a19.828 19.828 0 0 0-3.785 7.384 19.31 19.31 0 0 0-.628 4.105c-.214.221-1.712 0-2.06 0-1.142 0-1.326 1.777-.203 1.982.724.134 1.546.019 2.279.019.322 5.625 3.079 10.962 7.441 14.519a19.78 19.78 0 0 0 7.371 3.781c1.343.357 2.724.569 4.111.631.223.215 0 1.72 0 2.069 0 1.141 1.776 1.326 1.982.203.133-.722.019-1.543.019-2.275 5.632-.311 10.965-3.072 14.52-7.443a19.942 19.942 0 0 0 3.788-7.376c.361-1.341.579-2.721.649-4.109.217-.221 1.695 0 2.043 0 1.29 0 1.29-2 0-2zm-7.954 12.257c-3.142 3.914-7.955 6.354-13.046 6.666V48c0-1.034-1.549-1.353-1.932-.382-.256.653-.068 1.625-.068 2.313-8.994-.446-16.365-8.003-16.926-16.931H16c1.034 0 1.353-1.549.382-1.932-.656-.258-1.634-.068-2.325-.068.437-8.979 8.018-16.412 16.943-16.95V16c0 1.034 1.549 1.353 1.932.382.259-.659.068-1.641.068-2.336 8.926.465 16.441 8.056 16.954 16.954H48c-1.034 0-1.353 1.549-.382 1.932.66.26 1.644.068 2.339.068-.249 4.447-2.174 8.099-4.91 11.501.533-.664 1.067-1.327 1.599-1.992l-.6.748c-3.142 3.914 2.341-2.916 0 0z" data-original="#000000"/><path d="M37.898 20.413c-5.512-2.813-12.61-1.131-16.308 3.822-1.939 2.598-2.814 5.904-2.473 9.123.321 3.016 1.798 6.492 4.288 8.37 2.789 2.476 6.592 3.593 10.28 3.085a13.221 13.221 0 0 0 8.838-5.27c2.566-3.497 3.17-8.147 1.598-12.188a13.356 13.356 0 0 0-3.089-4.682c-.906-.888-2.22-2.082-3.474-2.435.652.184 1.307.672 1.915.977-.526-.262-1.049-.534-1.575-.802-5.925-3.024 4.315 2.2 0 0zm-9.096 22.115A10.907 10.907 0 0 1 25 40.46v-1.091a3 3 0 0 1 2.451-2.949 24.966 24.966 0 0 1 7.59-.232c1.901.233 3.959.868 3.959 3.181v.985c-2.946 2.441-6.819 3.156-10.461 2.094.515.15 1.025.313 1.538.467-.426-.127-.85-.258-1.275-.387-1.409-.427 3.478 1.056 0 0zM28 30c0-2.137 1.862-4 4-4s4 1.863 4 4c0 2.133-1.856 3.992-3.988 3.999C29.871 33.999 28 32.145 28 30z" data-original="#000000"/></g></svg>