<?xml version="1.0" encoding="UTF-8"?>
<svg id="Calque_2" data-name="Calque 2" xmlns="http://www.w3.org/2000/svg" viewBox="0 0 358.4 531.4">
  <defs>
    <style>
      .cls-1 {
        fill: #fff;
      }

      .cls-2 {
        opacity: .56;
      }

      .cls-2, .cls-3 {
        fill: #ea4f52;
      }
    </style>
  </defs>
  <g id="Calque_1-2" data-name="Calque 1">
    <g>
      <path class="cls-3" d="m179.2,0C79.36,0,0,79.36,0,179.2c0,106,113.63,254.21,159.92,310.19,10.01,12.1,28.55,12.1,38.56,0,46.29-55.98,159.92-204.19,159.92-310.19C358.4,79.36,279.04,0,179.2,0Z"/>
      <path class="cls-1" d="m321.92,172.71h-13.28c-1.89-36.34-20.05-70.65-48.04-93.69-14.13-11.68-30.58-20.23-48.25-25.1-8.72-2.37-17.67-3.78-26.7-4.2-1.43-1.4,0-11.03,0-13.28,0-7.4-11.52-8.6-12.86-1.32-.85,4.64-.12,9.92-.12,14.62-36.57,1.99-71.2,20.06-94.26,48.41-11.47,14.06-19.84,30.39-24.56,47.91-2.31,8.71-3.68,17.64-4.08,26.64-1.39,1.43-11.11,0-13.37,0-7.41,0-8.6,11.53-1.32,12.86,4.7.87,10.03.12,14.79.12,2.09,36.5,19.98,71.13,48.28,94.21,14.03,11.46,30.33,19.82,47.83,24.53,8.71,2.32,17.68,3.69,26.68,4.09,1.45,1.4,0,11.16,0,13.43,0,7.4,11.52,8.6,12.86,1.32.86-4.68.12-10.01.12-14.76,36.55-2.02,71.15-19.93,94.22-48.3,11.46-14.06,19.83-30.36,24.58-47.86,2.34-8.7,3.76-17.66,4.21-26.66,1.41-1.43,11,0,13.26,0,8.37,0,8.37-12.98,0-12.98Zm-51.61,79.53s-.07.08-.1.12c1.33-1.66,2.66-3.31,3.99-4.97l-3.89,4.85Zm-2.64,3.16c-20.39,23.55-50.37,38.16-82.01,40.1v-12.48c0-6.71-10.05-8.78-12.54-2.48-1.66,4.24-.44,10.54-.44,15.01-58.36-2.89-106.19-51.93-109.83-109.86h12.5c6.71,0,8.78-10.05,2.48-12.54-4.26-1.67-10.6-.44-15.09-.44,2.84-58.26,52.03-106.5,109.94-109.99v12.65c0,6.71,10.05,8.78,12.54,2.48,1.68-4.28.44-10.65.44-15.16,57.92,3.02,106.68,52.27,110.01,110.01h-12.68c-6.71,0-8.78,10.05-2.48,12.54,4.28,1.69,10.67.44,15.18.44-1.5,26.73-12.33,49.03-28.02,69.71Z"/>
      <path class="cls-1" d="m238.82,117.54c-3.47-3.4-7.86-7.48-12.54-10.77-2.73-1.38-5.45-2.78-8.18-4.17-36.44-18.6-83.37-7.48-107.82,25.27-12.82,17.18-18.6,39.03-16.35,60.32,2.12,19.94,11.89,42.92,28.35,55.34,18.44,16.37,43.58,23.75,67.96,20.4,23.38-3.25,44.46-15.81,58.43-34.84,16.96-23.12,20.96-53.86,10.56-80.58-4.54-11.65-11.5-22.2-20.42-30.95Zm-59.71,22c14.14,0,26.45,12.32,26.45,26.45s-12.27,26.39-26.37,26.44c-14.15,0-26.52-12.26-26.52-26.44s12.31-26.45,26.45-26.45Zm-21.14,109.27s-.09-.03-.14-.05c2.86.86,5.71,1.75,8.57,2.61-2.82-.84-5.62-1.71-8.43-2.56Zm67.42-14.37c-19.23,15.94-44.44,20.74-68.25,14.09-8.89-2.85-17.15-7.39-24.31-13.39v-7.21c0-9.55,6.81-17.75,16.2-19.5,16.55-3.07,33.47-3.58,50.18-1.53,12.57,1.54,26.17,5.74,26.17,21.03v6.51Z"/>
      <g>
        <ellipse class="cls-2" cx="179.2" cy="518.04" rx="85.92" ry="13.36"/>
        <ellipse class="cls-2" cx="179.2" cy="518.04" rx="58.95" ry="9.17"/>
        <ellipse class="cls-2" cx="179.2" cy="518.04" rx="30.36" ry="4.72"/>
      </g>
    </g>
  </g>
</svg>