<svg xmlns="http://www.w3.org/2000/svg" xml:space="preserve" viewBox="0 0 502 502"><linearGradient id="a" x1="-167.53" x2="496.386" y1="320.126" y2="320.126" gradientUnits="userSpaceOnUse"><stop offset="0" stop-color="#4e5660"/><stop offset="1" stop-color="#64768d"/></linearGradient><linearGradient id="b" x1="229.59" x2="229.59" y1="267.709" y2="-8.409" gradientUnits="userSpaceOnUse"><stop offset="0" stop-color="#ea7d32"/><stop offset="1" stop-color="#f0b160"/></linearGradient><linearGradient id="c" x1="329.326" x2="329.326" y1="386.134" y2="65.091" gradientUnits="userSpaceOnUse"><stop offset="0" stop-color="#f4d952"/><stop offset="1" stop-color="#f9edaf"/></linearGradient><path fill="url(#a)" d="M347.285 467.937H48.238C21.597 467.937 0 446.341 0 419.7V220.553c0-26.641 21.597-48.238 48.238-48.238h299.047c26.641 0 48.238 21.597 48.238 48.238V419.7c0 26.641-21.597 48.237-48.238 48.237z" data-original="url(#a)"/><path fill="url(#b)" d="M350.022 141.015c0-15.877 9.68-29.494 23.461-35.269 8.845-3.707 14.764-12.161 14.764-21.751V70.616c0-20.188-16.365-36.553-36.553-36.553H107.486c-20.188 0-36.553 16.365-36.553 36.553v13.379c0 9.591 5.919 18.044 14.764 21.751 13.781 5.775 23.461 19.392 23.461 35.269s-9.68 29.494-23.461 35.269c-8.845 3.707-14.764 12.161-14.764 21.751v13.379c0 20.188 16.365 36.553 36.553 36.553h244.208c20.188 0 36.553-16.365 36.553-36.553v-13.379c0-9.591-5.919-18.044-14.764-21.751-13.781-5.775-23.461-19.391-23.461-35.269z" data-original="url(#b)"/><path fill="#e06e1c" d="M262.184 152.516h-65.187c-6.351 0-11.5-5.149-11.5-11.5s5.149-11.5 11.5-11.5h65.187c6.351 0 11.5 5.149 11.5 11.5s-5.149 11.5-11.5 11.5z" data-original="#e06e1c"/><path fill="url(#c)" d="M414.485 162.81c-11.227-11.227-14.01-27.7-8.35-41.529 3.633-8.876 1.841-19.038-4.941-25.82l-9.46-9.46c-14.275-14.275-37.419-14.275-51.694 0L167.359 258.682c-14.275 14.275-14.275 37.419 0 51.694l9.46 9.461c6.782 6.782 16.944 8.574 25.82 4.941 13.828-5.66 30.302-2.877 41.529 8.35s14.01 27.7 8.35 41.529c-3.633 8.876-1.841 19.039 4.941 25.82l9.46 9.46c14.275 14.275 37.419 14.275 51.694 0l172.681-172.681c14.275-14.275 14.275-37.419 0-51.694l-9.461-9.46c-6.782-6.782-16.944-8.574-25.82-4.941-13.828 5.659-30.301 2.876-41.528-8.351z" data-original="url(#c)"/><path fill="#e06e1c" d="M293.038 111.788c-5.858-5.858-15.355-5.858-21.214 0l-125.68 125.68a66.598 66.598 0 0 0-8.558 10.5h40.485l114.966-114.966c5.859-5.858 5.859-15.356.001-21.214z" data-original="#e06e1c"/><path fill="#c2c8cf" d="M128.014 401.385H76.999c-6.351 0-11.5-5.149-11.5-11.5s5.149-11.5 11.5-11.5h51.014c6.351 0 11.5 5.149 11.5 11.5.001 6.351-5.148 11.5-11.499 11.5z" data-original="#c2c8cf"/><path fill="#efc534" d="M306.279 282.516a11.463 11.463 0 0 1-8.132-3.368c-4.491-4.491-4.491-11.772 0-16.264l46.094-46.095c4.491-4.491 11.772-4.491 16.264 0 4.491 4.491 4.491 11.772 0 16.264l-46.094 46.095a11.468 11.468 0 0 1-8.132 3.368z" data-original="#efc534"/><path fill="#424e5e" d="M189.558 338.505c.686-6.014-2.296-11.873-7.596-14.798a22.977 22.977 0 0 1-5.144-3.87l-9.46-9.461c-14.275-14.275-14.275-37.419 0-51.694l10.713-10.713h-70.586c-20.188 0-36.553-16.365-36.553-36.553v-13.379c0-9.605 5.946-18.044 14.801-21.767a38.176 38.176 0 0 0 7.14-3.954H48.238l-.971.576a53.024 53.024 0 0 0-6.333 25.145v13.379c0 36.756 29.797 66.553 66.553 66.553h19.519c-1.882 19.158 4.498 38.978 19.14 53.62l9.461 9.461a53.048 53.048 0 0 0 11.954 8.989c9.288 5.109 20.795-1 21.997-11.534z" data-original="#424e5e"/><path fill="#fffde3" d="M403.377 292.281a9.966 9.966 0 0 1-7.071-2.929c-3.905-3.905-3.905-10.237 0-14.142l23.728-23.727c3.905-3.904 10.237-3.905 14.142.001 3.905 3.905 3.905 10.237 0 14.142l-23.728 23.727a9.97 9.97 0 0 1-7.071 2.928zm52.731-52.731a9.966 9.966 0 0 1-7.071-2.929c-3.905-3.905-3.905-10.237 0-14.143l3.386-3.386c3.905-3.905 10.237-3.905 14.142 0s3.905 10.237 0 14.143l-3.386 3.386a9.966 9.966 0 0 1-7.071 2.929z" data-original="#fffde3"/></svg>