<svg xmlns="http://www.w3.org/2000/svg" xml:space="preserve" width="512" height="512" style="enable-background:new 0 0 512 512" viewBox="0 0 682.667 682.667"><defs><clipPath id="b" clipPathUnits="userSpaceOnUse"><path d="M0 512h512V0H0Z" data-original="#000000"/></clipPath></defs><mask id="a"><rect width="100%" height="100%" fill="#fff" data-original="#ffffff"/><path fill="#fff" d="M0 0v-290.214l40-40V0c0 30.842-25.091 55.933-55.932 55.933h-331.215l40-40h291.215C-7.147 15.933 0 8.785 0 0" data-original="#ffffff" style="fill-opacity:1;fill-rule:nonzero;stroke:none" transform="matrix(1.33333 0 0 -1.33333 629.333 74.577)"/></mask><g mask="url(#a)"><g clip-path="url(#b)" transform="matrix(1.33333 0 0 -1.33333 0 682.667)"><path fill="none" stroke="#000" stroke-miterlimit="10" stroke-width="40" d="M0 0h-352.136c-19.844 0-35.932 16.087-35.932 35.933v384.913" data-original="#000000" style="stroke-width:40;stroke-linecap:butt;stroke-linejoin:miter;stroke-miterlimit:10;stroke-dasharray:none;stroke-opacity:1" transform="translate(456.068 68)"/><path fill="none" stroke="#000" stroke-miterlimit="10" stroke-width="40" d="m0 0 55 55 55-55" data-original="#000000" style="stroke-width:40;stroke-linecap:butt;stroke-linejoin:miter;stroke-miterlimit:10;stroke-dasharray:none;stroke-opacity:1" transform="translate(14 428)"/><path fill="none" stroke="#000" stroke-miterlimit="10" stroke-width="40" d="m0 0 55-55-55-55" data-original="#000000" style="stroke-width:40;stroke-linecap:butt;stroke-linejoin:miter;stroke-miterlimit:10;stroke-dasharray:none;stroke-opacity:1" transform="translate(429 124)"/><path d="M0 0v-290.214l40-40V0c0 30.842-25.091 55.933-55.932 55.933h-331.215l40-40h291.215C-7.147 15.933 0 8.785 0 0" data-original="#000000" style="fill-opacity:1;fill-rule:nonzero;stroke:none" transform="translate(472 456.067)"/><path fill="none" stroke="#000" stroke-miterlimit="10" stroke-width="40" d="m0 0-400.5-400.5" data-original="#000000" style="stroke-width:40;stroke-linecap:butt;stroke-linejoin:miter;stroke-miterlimit:10;stroke-dasharray:none;stroke-opacity:1" transform="translate(477.5 477.5)"/><path fill="none" stroke="#000" stroke-miterlimit="10" stroke-width="40" d="m0 0-202-202" data-original="#000000" style="stroke-width:40;stroke-linecap:butt;stroke-linejoin:miter;stroke-miterlimit:10;stroke-dasharray:none;stroke-opacity:1" transform="translate(491.5 266.5)"/><path fill="none" stroke="#000" stroke-miterlimit="10" stroke-width="40" d="m0 0-308-308" data-original="#000000" style="stroke-width:40;stroke-linecap:butt;stroke-linejoin:miter;stroke-miterlimit:10;stroke-dasharray:none;stroke-opacity:1" transform="translate(487.75 375.25)"/><path fill="none" stroke="#000" stroke-miterlimit="10" stroke-width="40" d="m0 0-307.5-307.5" data-original="#000000" style="stroke-width:40;stroke-linecap:butt;stroke-linejoin:miter;stroke-miterlimit:10;stroke-dasharray:none;stroke-opacity:1" transform="translate(377 490)"/><path fill="none" stroke="#000" stroke-miterlimit="10" stroke-width="40" d="m0 0-198-198" data-original="#000000" style="stroke-width:40;stroke-linecap:butt;stroke-linejoin:miter;stroke-miterlimit:10;stroke-dasharray:none;stroke-opacity:1" transform="translate(267.5 491.5)"/></g></g></svg>